<svg width="751" height="751" viewBox="0 0 751 751" fill="none" xmlns="http://www.w3.org/2000/svg">
<path fill-rule="evenodd" clip-rule="evenodd" d="M375.367 0C474.92 0 570.396 39.5474 640.79 109.942C711.185 180.337 750.733 275.813 750.733 375.367C750.733 474.92 711.185 570.396 640.79 640.79C570.396 711.185 474.92 750.733 375.367 750.733C275.813 750.733 180.337 711.185 109.942 640.79C39.5474 570.396 0 474.92 0 375.367C0 275.813 39.5474 180.337 109.942 109.942C180.337 39.5474 275.813 0 375.367 0ZM374.633 46.9208C313.516 46.7545 253.576 63.7204 201.613 95.8944V208.798C218.795 198.726 238.447 193.648 258.358 194.135C278.835 193.538 299.033 198.995 316.422 209.824C329.81 218.49 340.681 230.526 347.947 244.722C355.575 259.646 359.831 276.064 360.411 292.815V360.264C360.411 360.264 360.411 382.991 337.83 382.991C315.249 382.991 315.103 360.264 315.103 360.264V291.935C314.43 282.786 311.937 273.863 307.771 265.689C304.18 258.546 298.768 252.477 292.082 248.094C281.891 242.078 270.183 239.125 258.358 239.59C246.628 239.003 234.897 241.935 224.633 247.947C217.928 252.371 212.515 258.492 208.944 265.689C204.545 274.487 202.102 283.724 201.613 293.402V360.264C201.613 360.264 201.613 382.991 178.886 382.991C156.158 382.991 156.158 360.264 156.158 360.264V129.912C121.566 160.555 93.8134 198.139 74.7064 240.217C55.5994 282.295 45.5665 327.925 45.2605 374.137C44.9545 420.349 54.3823 466.108 72.9304 508.436C91.4783 550.763 118.731 588.711 152.914 619.811C187.098 650.91 227.447 674.459 271.335 688.933C315.223 703.407 361.667 708.476 407.644 703.815C453.621 699.155 498.101 684.861 538.19 661.87C578.279 638.88 613.079 607.709 640.321 570.381H508.211C480.77 599.686 435.425 635.12 375.367 635.12C315.308 635.12 269.964 599.686 242.522 570.381C225.52 551.639 210.205 519.507 207.202 507.496C207.202 507.496 195.191 481.47 216.211 474.463C237.232 467.456 246.24 492.481 246.24 492.481C246.24 492.481 262.757 533.021 285.279 555.543C308.701 578.965 340.533 592.178 375.367 592.178C410.201 592.178 442.032 578.965 465.455 555.543C487.977 533.021 510.499 501.49 525.367 486.217C543.36 465.549 560.767 444.378 577.566 422.727H482.551C482.551 422.727 459.824 422.727 459.824 402.932C459.824 383.138 482.551 382.991 482.551 382.991H620.232C624.484 382.991 629.03 383.724 632.7 386.217C642.964 393.548 643.546 410.117 636.363 420.381C629.421 429.863 622.334 439.199 615.103 448.387C593.712 476.129 571.312 503.078 547.948 529.179H666.129C692.482 479.004 705.443 422.875 703.737 366.225C702.038 309.575 685.744 254.324 656.423 205.82C627.108 157.316 585.763 117.204 536.395 89.3661C487.028 61.5277 431.309 46.9078 374.633 46.9208Z" fill="white"/>
</svg>
