<svg width="151" height="293" viewBox="0 0 151 293" fill="none" xmlns="http://www.w3.org/2000/svg">
<g clip-path="url(#clip0_432_2021)">
<path d="M131.768 12.9835H18.5893C15.2442 12.9835 12.5325 15.6952 12.5325 19.0403V140.644C12.5325 143.989 15.2442 146.701 18.5893 146.701H131.768C135.113 146.701 137.825 143.989 137.825 140.644V19.0403C137.825 15.6952 135.113 12.9835 131.768 12.9835Z" fill="#2076A8"/>
<path d="M136.584 6.44342C140.628 6.44342 143.93 9.74568 143.93 13.7889V278.694C143.93 282.737 140.628 286.04 136.584 286.04H13.7889C9.74568 286.04 6.44342 282.737 6.44342 278.694V13.7889C6.44342 9.74568 9.74568 6.44342 13.7889 6.44342H136.584ZM136.584 0H13.7889C6.16958 0 0 6.16958 0 13.7889V278.694C0 286.314 6.16958 292.483 13.7889 292.483H136.584C144.204 292.483 150.373 286.314 150.373 278.694V13.7889C150.373 6.16958 144.204 0 136.584 0Z" fill="#2076A8"/>
<path d="M85.2788 266.903H92.0121V260.169H85.2788V266.903Z" fill="#2076A8"/>
<path d="M78.5615 260.169H85.2948V253.436H78.5615V260.169Z" fill="#2076A8"/>
<path d="M71.812 266.903H78.5454V260.169H71.812V266.903Z" fill="#2076A8"/>
<path d="M58.3613 266.903H65.0947V260.169H58.3613V266.903Z" fill="#2076A8"/>
<path d="M85.2788 260.169H92.0121V253.436H85.2788V260.169Z" fill="#2076A8"/>
<path d="M108.829 256.803H115.563V250.069H108.829V256.803Z" fill="#2076A8"/>
<path d="M65.0786 260.169H71.812V253.436H65.0786V260.169Z" fill="#2076A8"/>
<path d="M58.3613 260.169H65.0947V253.436H58.3613V260.169Z" fill="#2076A8"/>
<path d="M85.2788 253.436H92.0121V246.703H85.2788V253.436Z" fill="#2076A8"/>
<path d="M78.5615 253.436H85.2948V246.703H78.5615V253.436Z" fill="#2076A8"/>
<path d="M71.812 253.436H78.5454V246.703H71.812V253.436Z" fill="#2076A8"/>
<path d="M58.3613 253.436H65.0947V246.703H58.3613V253.436Z" fill="#2076A8"/>
<path d="M105.479 266.903H125.679V239.985H98.7616V266.903H105.495H105.479ZM105.479 253.436V246.703H118.946V260.169H105.479V253.436Z" fill="#2076A8"/>
<path d="M71.812 246.719H78.5454V239.985H71.812V246.719Z" fill="#2076A8"/>
<path d="M65.0786 246.719H71.812V239.985H65.0786V246.719Z" fill="#2076A8"/>
<path d="M31.4278 266.903H51.628V239.985H24.7106V266.903H31.444H31.4278ZM31.4278 253.436V246.703H44.8946V260.169H31.4278V253.436Z" fill="#2076A8"/>
<path d="M41.5279 250.069H34.7946V256.803H41.5279V250.069Z" fill="#2076A8"/>
<path d="M85.2788 239.985H92.0121V233.252H85.2788V239.985Z" fill="#2076A8"/>
<path d="M58.3613 239.985H65.0947V233.252H58.3613V239.985Z" fill="#2076A8"/>
<path d="M118.93 233.236H125.663V226.502H118.93V233.236Z" fill="#2076A8"/>
<path d="M112.196 233.236H118.93V226.502H112.196V233.236Z" fill="#2076A8"/>
<path d="M105.479 233.236H112.212V226.502H105.479V233.236Z" fill="#2076A8"/>
<path d="M92.0121 233.236H98.7455V226.502H92.0121V233.236Z" fill="#2076A8"/>
<path d="M71.812 233.236H78.5454V226.502H71.812V233.236Z" fill="#2076A8"/>
<path d="M65.0786 233.236H71.812V226.502H65.0786V233.236Z" fill="#2076A8"/>
<path d="M51.6279 233.236H58.3613V226.502H51.6279V233.236Z" fill="#2076A8"/>
<path d="M44.8946 233.236H51.628V226.502H44.8946V233.236Z" fill="#2076A8"/>
<path d="M31.4439 233.236H38.1773V226.502H31.4439V233.236Z" fill="#2076A8"/>
<path d="M24.6944 233.236H31.4278V226.502H24.6944V233.236Z" fill="#2076A8"/>
<path d="M112.196 226.502H118.93V219.769H112.196V226.502Z" fill="#2076A8"/>
<path d="M98.7455 226.502H105.479V219.769H98.7455V226.502Z" fill="#2076A8"/>
<path d="M92.0121 226.502H98.7455V219.769H92.0121V226.502Z" fill="#2076A8"/>
<path d="M85.2788 226.502H92.0121V219.769H85.2788V226.502Z" fill="#2076A8"/>
<path d="M71.812 226.502H78.5454V219.769H71.812V226.502Z" fill="#2076A8"/>
<path d="M58.3613 226.502H65.0947V219.769H58.3613V226.502Z" fill="#2076A8"/>
<path d="M38.1773 226.502H44.9107V219.769H38.1773V226.502Z" fill="#2076A8"/>
<path d="M118.93 219.785H125.663V213.052H118.93V219.785Z" fill="#2076A8"/>
<path d="M112.196 219.785H118.93V213.052H112.196V219.785Z" fill="#2076A8"/>
<path d="M105.479 219.785H112.212V213.052H105.479V219.785Z" fill="#2076A8"/>
<path d="M85.2788 219.785H92.0121V213.052H85.2788V219.785Z" fill="#2076A8"/>
<path d="M78.5615 219.785H85.2948V213.052H78.5615V219.785Z" fill="#2076A8"/>
<path d="M65.0786 219.785H71.812V213.052H65.0786V219.785Z" fill="#2076A8"/>
<path d="M58.3613 219.785H65.0947V213.052H58.3613V219.785Z" fill="#2076A8"/>
<path d="M51.6279 219.785H58.3613V213.052H51.6279V219.785Z" fill="#2076A8"/>
<path d="M24.6944 219.785H31.4278V213.052H24.6944V219.785Z" fill="#2076A8"/>
<path d="M118.93 213.052H125.663V206.318H118.93V213.052Z" fill="#2076A8"/>
<path d="M105.479 213.052H112.212V206.318H105.479V213.052Z" fill="#2076A8"/>
<path d="M98.7455 213.052H105.479V206.318H98.7455V213.052Z" fill="#2076A8"/>
<path d="M71.812 213.052H78.5454V206.318H71.812V213.052Z" fill="#2076A8"/>
<path d="M78.5615 206.318H85.2948V199.585H78.5615V206.318Z" fill="#2076A8"/>
<path d="M65.0786 213.052H71.812V206.318H65.0786V213.052Z" fill="#2076A8"/>
<path d="M51.6279 213.052H58.3613V206.318H51.6279V213.052Z" fill="#2076A8"/>
<path d="M44.8946 213.052H51.628V206.318H44.8946V213.052Z" fill="#2076A8"/>
<path d="M38.1773 213.052H44.9107V206.318H38.1773V213.052Z" fill="#2076A8"/>
<path d="M38.1773 219.785H44.9107V213.052H38.1773V219.785Z" fill="#2076A8"/>
<path d="M31.4439 213.052H38.1773V206.318H31.4439V213.052Z" fill="#2076A8"/>
<path d="M24.6944 213.052H31.4278V206.318H24.6944V213.052Z" fill="#2076A8"/>
<path d="M112.196 206.318H118.93V199.585H112.196V206.318Z" fill="#2076A8"/>
<path d="M105.479 206.318H112.212V199.585H105.479V206.318Z" fill="#2076A8"/>
<path d="M92.0121 206.318H98.7455V199.585H92.0121V206.318Z" fill="#2076A8"/>
<path d="M71.812 206.318H78.5454V199.585H71.812V206.318Z" fill="#2076A8"/>
<path d="M71.812 199.601H78.5454V192.868H71.812V199.601Z" fill="#2076A8"/>
<path d="M58.3613 206.318H65.0947V199.585H58.3613V206.318Z" fill="#2076A8"/>
<path d="M51.6279 206.318H58.3613V199.585H51.6279V206.318Z" fill="#2076A8"/>
<path d="M38.1773 206.318H44.9107V199.585H38.1773V206.318Z" fill="#2076A8"/>
<path d="M24.6944 206.318H31.4278V199.585H24.6944V206.318Z" fill="#2076A8"/>
<path d="M85.2788 199.601H92.0121V192.868H85.2788V199.601Z" fill="#2076A8"/>
<path d="M51.6279 199.601H58.3613V192.868H51.6279V199.601Z" fill="#2076A8"/>
<path d="M44.8946 199.601H51.628V192.868H44.8946V199.601Z" fill="#2076A8"/>
<path d="M31.4439 199.601H38.1773V192.868H31.4439V199.601Z" fill="#2076A8"/>
<path d="M24.6944 199.601H31.4278V192.868H24.6944V199.601Z" fill="#2076A8"/>
<path d="M78.5615 192.852H85.2948V186.118H78.5615V192.852Z" fill="#2076A8"/>
<path d="M85.2788 192.852H92.0121V186.118H85.2788V192.852Z" fill="#2076A8"/>
<path d="M71.812 192.852H78.5454V186.118H71.812V192.852Z" fill="#2076A8"/>
<path d="M58.3613 192.852H65.0947V186.118H58.3613V192.852Z" fill="#2076A8"/>
<path d="M51.6279 192.852H58.3613V186.118H51.6279V192.852Z" fill="#2076A8"/>
<path d="M38.1773 192.852H44.9107V186.118H38.1773V192.852Z" fill="#2076A8"/>
<path d="M71.812 186.118H78.5454V179.385H71.812V186.118Z" fill="#2076A8"/>
<path d="M65.0786 186.118H71.812V179.385H65.0786V186.118Z" fill="#2076A8"/>
<path d="M51.6279 186.118H58.3613V179.385H51.6279V186.118Z" fill="#2076A8"/>
<path d="M44.8946 186.118H51.628V179.385H44.8946V186.118Z" fill="#2076A8"/>
<path d="M38.1773 186.118H44.9107V179.385H38.1773V186.118Z" fill="#2076A8"/>
<path d="M24.6944 186.118H31.4278V179.385H24.6944V186.118Z" fill="#2076A8"/>
<path d="M85.2788 179.401H92.0121V172.668H85.2788V179.401Z" fill="#2076A8"/>
<path d="M78.5615 179.401H85.2948V172.668H78.5615V179.401Z" fill="#2076A8"/>
<path d="M65.0786 179.401H71.812V172.668H65.0786V179.401Z" fill="#2076A8"/>
<path d="M58.3613 179.401H65.0947V172.668H58.3613V179.401Z" fill="#2076A8"/>
<path d="M44.8946 179.401H51.628V172.668H44.8946V179.401Z" fill="#2076A8"/>
<path d="M31.4439 179.401H38.1773V172.668H31.4439V179.401Z" fill="#2076A8"/>
<path d="M115.579 176.034H108.846V182.768H115.579V176.034Z" fill="#2076A8"/>
<path d="M105.479 192.852H125.679V165.934H98.7616V192.852H105.495H105.479ZM105.479 179.401V172.668H118.946V186.134H105.479V179.401Z" fill="#2076A8"/>
<path d="M85.2788 172.668H92.0121V165.934H85.2788V172.668Z" fill="#2076A8"/>
<path d="M71.812 172.668H78.5454V165.934H71.812V172.668Z" fill="#2076A8"/>
<path d="M58.3613 172.668H65.0947V165.934H58.3613V172.668Z" fill="#2076A8"/>
<path d="M38.1773 172.668H44.9107V165.934H38.1773V172.668Z" fill="#2076A8"/>
<path d="M31.4439 172.668H38.1773V165.934H31.4439V172.668Z" fill="#2076A8"/>
<path d="M24.6944 172.668H31.4278V165.934H24.6944V172.668Z" fill="#2076A8"/>
<path d="M16.7207 188.841V157.961H51.628" stroke="#2076A8" stroke-width="2.11489" stroke-linecap="round" stroke-linejoin="round"/>
<path d="M133.653 188.841V157.961H98.7455" stroke="#2076A8" stroke-width="2.11489" stroke-linecap="round" stroke-linejoin="round"/>
<path d="M102.757 274.876H133.653V239.969" stroke="#2076A8" stroke-width="2.11489" stroke-linecap="round" stroke-linejoin="round"/>
<path d="M47.6169 274.876H16.7207V239.969" stroke="#2076A8" stroke-width="2.11489" stroke-linecap="round" stroke-linejoin="round"/>
<path d="M31.4117 25.0166C33.0709 23.1641 35.5355 22.2459 38.7733 22.2459C42.0112 22.2459 44.4758 23.1641 46.135 25.0166C47.7941 26.8691 48.6318 29.5109 48.6318 32.9581V34.2951H42.3011V32.5232C42.3011 31.0573 42.0112 29.9941 41.4474 29.3337C40.8836 28.6571 40.0459 28.335 38.9505 28.335C37.8552 28.335 37.0175 28.6732 36.4537 29.3337C35.8899 30.0102 35.6 31.0734 35.6 32.5232C35.6 34.3112 36.0671 35.8738 37.0336 37.2108C38.0001 38.5478 39.4177 40.0781 41.3185 41.7695C42.8971 43.2354 44.1858 44.5241 45.1523 45.6355C46.135 46.747 46.9565 48.1002 47.6492 49.6788C48.3418 51.2574 48.6801 53.0616 48.6801 55.0913C48.6801 58.5385 47.8263 61.1803 46.1188 63.0328C44.4113 64.8853 41.9306 65.8035 38.6928 65.8035C35.455 65.8035 32.9743 64.8853 31.2668 63.0328C29.5592 61.1803 28.7055 58.5385 28.7055 55.0913V52.4817H35.0362V55.5262C35.0362 58.2808 36.196 59.6661 38.4995 59.6661C40.803 59.6661 41.9628 58.2808 41.9628 55.5262C41.9628 53.7382 41.4957 52.1756 40.5292 50.8386C39.5627 49.5016 38.1451 47.9713 36.2443 46.2799C34.6657 44.814 33.377 43.5253 32.4105 42.4138C31.4278 41.3023 30.6063 39.9492 29.9136 38.3706C29.221 36.7919 28.8827 34.9878 28.8827 32.9581C28.8827 29.5109 29.7203 26.8691 31.3795 25.0166H31.4117Z" fill="white"/>
<path d="M71.9409 55.1074C71.9409 58.5546 71.0871 61.1964 69.3796 63.0489C67.6721 64.9014 65.2075 65.8196 61.9536 65.8196C58.6996 65.8196 56.235 64.9014 54.5275 63.0489C52.82 61.1964 51.9663 58.5546 51.9663 55.1074V32.9581C51.9663 29.5109 52.82 26.8691 54.5275 25.0166C56.235 23.1641 58.6996 22.2459 61.9536 22.2459C65.2075 22.2459 67.6721 23.1641 69.3796 25.0166C71.0871 26.8691 71.9409 29.5109 71.9409 32.9581V37.098H65.6102V32.5393C65.6102 29.7364 64.4504 28.335 62.1469 28.335C59.8434 28.335 58.6835 29.7364 58.6835 32.5393V55.5423C58.6835 58.2969 59.8434 59.6822 62.1469 59.6822C64.4504 59.6822 65.6102 58.2969 65.6102 55.5423V49.4533H71.9409V55.1074Z" fill="white"/>
<path d="M90.9329 65.3363L89.7731 57.6042H81.5577L80.3979 65.3363H74.2605L81.0744 22.7453H90.8684L97.6824 65.3363H90.9329ZM88.8549 51.8212L85.6332 30.2841L82.4114 51.8212H88.8549Z" fill="white"/>
<path d="M106.751 65.3363H100.727V22.7453H109.119L115.998 48.2451V22.7453H121.958V65.3363H115.08L106.735 34.4884V65.3363H106.751Z" fill="white"/>
<path d="M57.6365 71.3931H71.6509V135.521H62.1147V89.5314L55.1558 135.521H45.6356L38.129 90.1757V135.521H29.3338V71.3931H43.3482L50.7742 116.932L57.6526 71.3931H57.6365Z" fill="white"/>
<path d="M102.885 98.4233V107.589H89.0482V126.372H106.462V135.537H78.9803V71.4092H106.462V80.575H89.0482V98.4394H102.885V98.4233Z" fill="white"/>
<path d="M112.696 98.1494V71.3931H122.779V98.1494L121.507 121.33H114L112.712 98.1494H112.696ZM122.586 135.521H112.873V125.808H122.586V135.521Z" fill="white"/>
</g>
<defs>
<clipPath id="clip0_432_2021">
<rect width="150.373" height="292.483" fill="white"/>
</clipPath>
</defs>
</svg>
