<svg width="151" height="111" viewBox="0 0 151 111" fill="none" xmlns="http://www.w3.org/2000/svg">
<g clip-path="url(#clip0_432_1911)">
<path d="M86.3022 10.256H80.3195V16.2387H86.3022V10.256Z" fill="#718C31"/>
<path d="M86.3022 22.2117H80.3195V28.1944H86.3022V22.2117Z" fill="#718C31"/>
<path d="M92.2752 16.2387H86.2925V22.2214H92.2752V16.2387Z" fill="#718C31"/>
<path d="M98.258 10.256H92.2753V16.2387H98.258V10.256Z" fill="#718C31"/>
<path d="M110.223 10.256H104.241V16.2387H110.223V10.256Z" fill="#718C31"/>
<path d="M65.3628 19.2204H59.3801V25.2031H65.3628V19.2204Z" fill="#718C31"/>
<path d="M104.241 16.2387H98.2579V22.2214H104.241V16.2387Z" fill="#718C31"/>
<path d="M110.223 16.2387H104.241V22.2214H110.223V16.2387Z" fill="#718C31"/>
<path d="M92.2752 22.2117H86.2925V28.1944H92.2752V22.2117Z" fill="#718C31"/>
<path d="M86.3022 28.1944H80.3195V34.1771H86.3022V28.1944Z" fill="#718C31"/>
<path d="M98.258 22.2117H92.2753V28.1944H98.258V22.2117Z" fill="#718C31"/>
<path d="M68.3542 10.256H50.4158V16.2387V34.1771H74.3369V16.2387V10.256H68.3542ZM68.3542 22.2117V28.1944H56.3888V16.229H68.3542V22.2117Z" fill="#718C31"/>
<path d="M104.241 28.1944H98.2579V34.1771H104.241V28.1944Z" fill="#718C31"/>
<path d="M134.144 10.256H116.206V34.1771H140.127V10.256H134.144ZM134.144 22.2117V28.1944H122.179V16.229H134.144V22.2117Z" fill="#718C31"/>
<path d="M131.153 19.2204H125.17V25.2031H131.153V19.2204Z" fill="#718C31"/>
<path d="M86.3022 34.1771H80.3195V40.1598H86.3022V34.1771Z" fill="#718C31"/>
<path d="M110.223 34.1771H104.241V40.1598H110.223V34.1771Z" fill="#718C31"/>
<path d="M110.223 28.1944H104.241V34.1771H110.223V28.1944Z" fill="#718C31"/>
<path d="M56.3985 40.1598H50.4158V46.1425H56.3985V40.1598Z" fill="#718C31"/>
<path d="M62.3715 40.1598H56.3888V46.1425H62.3715V40.1598Z" fill="#718C31"/>
<path d="M68.3542 40.1598H62.3715V46.1425H68.3542V40.1598Z" fill="#718C31"/>
<path d="M80.3195 40.1598H74.3369V46.1425H80.3195V40.1598Z" fill="#718C31"/>
<path d="M98.258 40.1598H92.2753V46.1425H98.258V40.1598Z" fill="#718C31"/>
<path d="M92.2752 34.1771H86.2925V40.1598H92.2752V34.1771Z" fill="#718C31"/>
<path d="M104.241 40.1598H98.2579V46.1425H104.241V40.1598Z" fill="#718C31"/>
<path d="M116.206 40.1598H110.223V46.1425H116.206V40.1598Z" fill="#718C31"/>
<path d="M122.179 40.1598H116.196V46.1425H122.179V40.1598Z" fill="#718C31"/>
<path d="M140.127 40.1598H134.144V46.1425H140.127V40.1598Z" fill="#718C31"/>
<path d="M62.3715 46.1425H56.3888V52.1252H62.3715V46.1425Z" fill="#718C31"/>
<path d="M74.3369 46.1425H68.3542V52.1252H74.3369V46.1425Z" fill="#718C31"/>
<path d="M86.3022 46.1425H80.3195V52.1252H86.3022V46.1425Z" fill="#718C31"/>
<path d="M98.258 46.1425H92.2753V52.1252H98.258V46.1425Z" fill="#718C31"/>
<path d="M110.223 46.1425H104.241V52.1252H110.223V46.1425Z" fill="#718C31"/>
<path d="M128.162 40.1598H122.179V46.1425H128.162V40.1598Z" fill="#718C31"/>
<path d="M56.3985 52.1155H50.4158V58.0982H56.3985V52.1155Z" fill="#718C31"/>
<path d="M62.3715 52.1155H56.3888V58.0982H62.3715V52.1155Z" fill="#718C31"/>
<path d="M68.3542 52.1155H62.3715V58.0982H68.3542V52.1155Z" fill="#718C31"/>
<path d="M92.2752 52.1155H86.2925V58.0982H92.2752V52.1155Z" fill="#718C31"/>
<path d="M104.241 52.1155H98.2579V58.0982H104.241V52.1155Z" fill="#718C31"/>
<path d="M110.223 52.1155H104.241V58.0982H110.223V52.1155Z" fill="#718C31"/>
<path d="M116.206 52.1155H110.223V58.0982H116.206V52.1155Z" fill="#718C31"/>
<path d="M140.127 52.1155H134.144V58.0982H140.127V52.1155Z" fill="#718C31"/>
<path d="M56.3985 58.0982H50.4158V64.0809H56.3985V58.0982Z" fill="#718C31"/>
<path d="M68.3542 58.0982H62.3715V64.0809H68.3542V58.0982Z" fill="#718C31"/>
<path d="M74.3369 58.0982H68.3542V64.0809H74.3369V58.0982Z" fill="#718C31"/>
<path d="M86.3022 52.1155H80.3195V58.0982H86.3022V52.1155Z" fill="#718C31"/>
<path d="M98.258 58.0982H92.2753V64.0809H98.258V58.0982Z" fill="#718C31"/>
<path d="M92.2752 64.0809H86.2925V70.0635H92.2752V64.0809Z" fill="#718C31"/>
<path d="M122.179 58.0982H116.196V64.0809H122.179V58.0982Z" fill="#718C31"/>
<path d="M128.162 58.0982H122.179V64.0809H128.162V58.0982Z" fill="#718C31"/>
<path d="M134.144 58.0982H128.162V64.0809H134.144V58.0982Z" fill="#718C31"/>
<path d="M128.162 52.1155H122.179V58.0982H128.162V52.1155Z" fill="#718C31"/>
<path d="M122.179 46.1425H116.196V52.1252H122.179V46.1425Z" fill="#718C31"/>
<path d="M140.127 58.0982H134.144V64.0809H140.127V58.0982Z" fill="#718C31"/>
<path d="M62.3715 64.0809H56.3888V70.0635H62.3715V64.0809Z" fill="#718C31"/>
<path d="M68.3542 64.0809H62.3715V70.0635H68.3542V64.0809Z" fill="#718C31"/>
<path d="M80.3195 64.0809H74.3369V70.0635H80.3195V64.0809Z" fill="#718C31"/>
<path d="M86.3022 58.0982H80.3195V64.0809H86.3022V58.0982Z" fill="#718C31"/>
<path d="M98.258 64.0809H92.2753V70.0635H98.258V64.0809Z" fill="#718C31"/>
<path d="M110.223 64.0809H104.241V70.0635H110.223V64.0809Z" fill="#718C31"/>
<path d="M104.114 70.1898H98.1317V76.1725H104.114V70.1898Z" fill="#718C31"/>
<path d="M116.206 64.0809H110.223V70.0635H116.206V64.0809Z" fill="#718C31"/>
<path d="M128.162 64.0809H122.179V70.0635H128.162V64.0809Z" fill="#718C31"/>
<path d="M134.144 70.0635H128.162V76.0462H134.144V70.0635Z" fill="#718C31"/>
<path d="M86.3022 70.0635H80.3195V76.0462H86.3022V70.0635Z" fill="#718C31"/>
<path d="M116.206 70.0635H110.223V76.0462H116.206V70.0635Z" fill="#718C31"/>
<path d="M122.179 70.0635H116.196V76.0462H122.179V70.0635Z" fill="#718C31"/>
<path d="M140.127 70.0635H134.144V76.0462H140.127V70.0635Z" fill="#718C31"/>
<path d="M92.2752 76.0462H86.2925V82.0289H92.2752V76.0462Z" fill="#718C31"/>
<path d="M86.3022 76.0462H80.3195V82.0289H86.3022V76.0462Z" fill="#718C31"/>
<path d="M98.258 76.0462H92.2753V82.0289H98.258V76.0462Z" fill="#718C31"/>
<path d="M110.223 76.0462H104.241V82.0289H110.223V76.0462Z" fill="#718C31"/>
<path d="M128.162 76.0462H122.179V82.0289H128.162V76.0462Z" fill="#718C31"/>
<path d="M98.258 82.0192H92.2753V88.0019H98.258V82.0192Z" fill="#718C31"/>
<path d="M116.206 82.0192H110.223V88.0019H116.206V82.0192Z" fill="#718C31"/>
<path d="M122.179 82.0192H116.196V88.0019H122.179V82.0192Z" fill="#718C31"/>
<path d="M128.162 82.0192H122.179V88.0019H128.162V82.0192Z" fill="#718C31"/>
<path d="M140.127 82.0192H134.144V88.0019H140.127V82.0192Z" fill="#718C31"/>
<path d="M86.3022 88.0019H80.3195V93.9846H86.3022V88.0019Z" fill="#718C31"/>
<path d="M92.2752 88.0019H86.2925V93.9846H92.2752V88.0019Z" fill="#718C31"/>
<path d="M104.241 88.0019H98.2579V93.9846H104.241V88.0019Z" fill="#718C31"/>
<path d="M110.223 88.0019H104.241V93.9846H110.223V88.0019Z" fill="#718C31"/>
<path d="M122.179 88.0019H116.196V93.9846H122.179V88.0019Z" fill="#718C31"/>
<path d="M116.206 93.9846H110.223V99.9673H116.206V93.9846Z" fill="#718C31"/>
<path d="M134.144 88.0019H128.162V93.9846H134.144V88.0019Z" fill="#718C31"/>
<path d="M65.3628 85.0106H59.3801V90.9933H65.3628V85.0106Z" fill="#718C31"/>
<path d="M68.3542 76.0462H56.3888H50.4061V99.9673H74.3271V76.0462H68.3445H68.3542ZM68.3542 88.0019V93.9846H56.3888V82.0192H68.3542V88.0019Z" fill="#718C31"/>
<path d="M86.3022 93.9846H80.3195V99.9673H86.3022V93.9846Z" fill="#718C31"/>
<path d="M98.258 93.9846H92.2753V99.9673H98.258V93.9846Z" fill="#718C31"/>
<path d="M110.223 93.9846H104.241V99.9673H110.223V93.9846Z" fill="#718C31"/>
<path d="M128.162 93.9846H122.179V99.9673H128.162V93.9846Z" fill="#718C31"/>
<path d="M134.144 93.9846H128.162V99.9673H134.144V93.9846Z" fill="#718C31"/>
<path d="M140.127 93.9846H134.144V99.9673H140.127V93.9846Z" fill="#718C31"/>
<path d="M7.53664 0H40.1598V110.223H7.53664C3.37983 110.223 0 106.843 0 102.687V7.53664C0 3.37983 3.37983 0 7.53664 0Z" fill="#718C31"/>
<path d="M142.846 2.91365C145.391 2.91365 147.469 4.98234 147.469 7.53664V102.687C147.469 105.231 145.401 107.31 142.846 107.31H43.0734V2.91365H142.846ZM142.846 0H40.1598V110.223H142.846C147.003 110.223 150.383 106.853 150.383 102.687V7.53664C150.373 3.37012 147.003 0 142.846 0Z" fill="#718C31"/>
<path d="M9.81901 99.2971C8.81865 98.4036 8.32333 97.0731 8.32333 95.3249C8.32333 93.5767 8.81865 92.2461 9.81901 91.3526C10.8194 90.4591 12.247 90.0026 14.1021 90.0026H14.8208V93.4213H13.869C13.0823 93.4213 12.5093 93.5767 12.1402 93.8778C11.7809 94.1886 11.5963 94.6353 11.5963 95.2278C11.5963 95.8202 11.7809 96.267 12.1402 96.5777C12.4996 96.8885 13.0726 97.0342 13.869 97.0342C14.8305 97.0342 15.6754 96.7817 16.3941 96.267C17.1128 95.7522 17.9384 94.9849 18.8513 93.9555C19.638 93.1008 20.3373 92.4112 20.9394 91.8868C21.5416 91.3623 22.27 90.9156 23.1247 90.5368C23.9793 90.158 24.9506 89.9735 26.048 89.9735C27.9128 89.9735 29.3405 90.4299 30.3311 91.3526C31.3217 92.2753 31.8268 93.6058 31.8268 95.354C31.8268 97.1022 31.3314 98.4425 30.3311 99.3554C29.3307 100.268 27.9031 100.735 26.048 100.735H24.6398V97.3159H26.2811C27.7671 97.3159 28.5149 96.6943 28.5149 95.4414C28.5149 94.1885 27.7671 93.567 26.2811 93.567C25.3196 93.567 24.4747 93.8195 23.756 94.3342C23.0373 94.849 22.2117 95.6162 21.2891 96.6457C20.5024 97.5004 19.8031 98.19 19.201 98.7144C18.5988 99.2389 17.8704 99.6856 17.0157 100.064C16.161 100.443 15.1898 100.618 14.0924 100.618C12.2276 100.618 10.7999 100.171 9.8093 99.268L9.81901 99.2971Z" fill="white"/>
<path d="M26.048 77.4351C27.9128 77.4351 29.3405 77.8915 30.3311 78.8142C31.3217 79.7368 31.8268 81.0674 31.8268 82.8156C31.8268 84.5638 31.3314 85.9041 30.3311 86.817C29.3307 87.73 27.9031 88.1961 26.048 88.1961H14.1021C12.2373 88.1961 10.8096 87.7397 9.81901 86.817C8.82837 85.8944 8.32333 84.5638 8.32333 82.8156C8.32333 81.0674 8.81865 79.7271 9.81901 78.8142C10.8194 77.9012 12.247 77.4351 14.1021 77.4351H16.3359V80.844H13.8787C12.3636 80.844 11.6158 81.4656 11.6158 82.7185C11.6158 83.9713 12.3733 84.5929 13.8787 84.5929H26.2908C27.7768 84.5929 28.5246 83.9713 28.5246 82.7185C28.5246 81.4656 27.7768 80.844 26.2908 80.844H23.0081V77.4351H26.0577H26.048Z" fill="white"/>
<path d="M31.5645 67.1887L27.398 67.8103V72.2391L31.5645 72.8606V76.1725L8.58557 72.4916V67.2082L31.5645 63.5273V67.1693V67.1887ZM24.2707 68.3056L12.655 70.0441L24.2707 71.7826V68.3056Z" fill="white"/>
<path d="M31.5645 58.6517V61.9053H8.58557V57.3795L22.338 53.6694H8.58557V50.4547H31.5645V54.1647L14.9179 58.6615H31.5645V58.6517Z" fill="white"/>
<path d="M8.58557 32.6523V27.6311H31.5645V31.0401H15.083L31.5645 33.5361V36.9451L15.3161 39.6353H31.5645V42.7918H8.58557V37.7706L24.902 35.1095L8.58557 32.6426V32.6523Z" fill="white"/>
<path d="M18.2686 16.4427H21.5513V21.3959H28.2818V15.1607H31.5645V25.0088H8.58557V15.1607H11.8683V21.3959H18.2686V16.4427Z" fill="white"/>
<path d="M18.1715 12.9269H8.58557V9.31396H18.1715L26.4754 9.77043V12.4607L18.1715 12.9172V12.9269ZM31.5645 9.38194V12.8589H28.0876V9.38194H31.5645Z" fill="white"/>
</g>
<defs>
<clipPath id="clip0_432_1911">
<rect width="150.373" height="110.223" fill="white"/>
</clipPath>
</defs>
</svg>
