<svg width="151" height="188" viewBox="0 0 151 188" fill="none" xmlns="http://www.w3.org/2000/svg">
<rect width="102.895" height="128" rx="12.0221" fill="white"/>
<path d="M0 12.0221C0 5.38247 5.38248 0 12.0221 0H90.8729C97.5125 0 102.895 5.38248 102.895 12.0221V26.1657H0V12.0221Z" fill="black"/>
<path d="M22.8388 10.6786C22.7755 10.1442 22.5188 9.72928 22.0688 9.43395C21.6188 9.13863 21.0668 8.99096 20.4128 8.99096C19.9347 8.99096 19.5163 9.06831 19.1577 9.223C18.8026 9.3777 18.5249 9.59041 18.3244 9.86113C18.1276 10.1318 18.0291 10.4395 18.0291 10.784C18.0291 11.0723 18.0977 11.3202 18.2348 11.5276C18.3754 11.7315 18.5547 11.9021 18.7727 12.0392C18.9907 12.1728 19.2192 12.2835 19.4583 12.3714C19.6974 12.4558 19.9171 12.5244 20.1175 12.5771L21.2145 12.8724C21.4957 12.9463 21.8086 13.0482 22.1532 13.1783C22.5012 13.3084 22.8335 13.4859 23.1499 13.711C23.4699 13.9324 23.7335 14.2172 23.941 14.5653C24.1484 14.9134 24.2521 15.3405 24.2521 15.8468C24.2521 16.4304 24.0992 16.9578 23.7933 17.4289C23.4909 17.9001 23.048 18.2745 22.4643 18.5522C21.8842 18.83 21.1793 18.9689 20.3496 18.9689C19.5761 18.9689 18.9063 18.844 18.3403 18.5944C17.7777 18.3448 17.3347 17.9967 17.0113 17.5502C16.6913 17.1037 16.5103 16.5851 16.4681 15.9945H17.8182C17.8533 16.4023 17.9904 16.7398 18.2295 17.007C18.4721 17.2707 18.778 17.4676 19.1472 17.5977C19.5198 17.7243 19.9206 17.7875 20.3496 17.7875C20.8488 17.7875 21.2971 17.7067 21.6944 17.545C22.0917 17.3797 22.4063 17.1512 22.6384 16.8594C22.8704 16.564 22.9864 16.2195 22.9864 15.8257C22.9864 15.4671 22.8862 15.1753 22.6858 14.9503C22.4854 14.7253 22.2217 14.5424 21.8948 14.4018C21.5678 14.2612 21.2145 14.1381 20.8347 14.0326L19.5058 13.6529C18.662 13.4103 17.994 13.064 17.5017 12.614C17.0095 12.164 16.7634 11.5751 16.7634 10.8473C16.7634 10.2426 16.9269 9.71522 17.2539 9.2652C17.5844 8.81165 18.0274 8.46007 18.5829 8.21045C19.1419 7.95731 19.7659 7.83074 20.455 7.83074C21.1512 7.83074 21.77 7.95555 22.3114 8.20517C22.8528 8.45128 23.2818 8.7888 23.5982 9.21773C23.9181 9.64666 24.0869 10.1336 24.1045 10.6786H22.8388ZM35.0936 11.3536H33.7857C33.7084 10.9774 33.573 10.6469 33.3796 10.3621C33.1898 10.0773 32.9577 9.83827 32.6835 9.6449C32.4128 9.44802 32.1122 9.30035 31.7817 9.20191C31.4512 9.10347 31.1067 9.05425 30.748 9.05425C30.0941 9.05425 29.5017 9.21949 28.9708 9.54998C28.4434 9.88046 28.0233 10.3674 27.7104 11.0108C27.401 11.6542 27.2463 12.4435 27.2463 13.3787C27.2463 14.3139 27.401 15.1032 27.7104 15.7466C28.0233 16.39 28.4434 16.8769 28.9708 17.2074C29.5017 17.5379 30.0941 17.7032 30.748 17.7032C31.1067 17.7032 31.4512 17.6539 31.7817 17.5555C32.1122 17.4571 32.4128 17.3112 32.6835 17.1178C32.9577 16.9209 33.1898 16.6801 33.3796 16.3953C33.573 16.107 33.7084 15.7765 33.7857 15.4038H35.0936C34.9952 15.9558 34.8158 16.4498 34.5557 16.8857C34.2955 17.3217 33.9721 17.6926 33.5853 17.9985C33.1986 18.3009 32.7644 18.5311 32.2827 18.6894C31.8045 18.8476 31.293 18.9267 30.748 18.9267C29.8269 18.9267 29.0077 18.7017 28.2905 18.2516C27.5733 17.8016 27.009 17.1617 26.5976 16.332C26.1863 15.5023 25.9806 14.5178 25.9806 13.3787C25.9806 12.2396 26.1863 11.2551 26.5976 10.4254C27.009 9.59568 27.5733 8.9558 28.2905 8.50578C29.0077 8.05575 29.8269 7.83074 30.748 7.83074C31.293 7.83074 31.8045 7.90985 32.2827 8.06806C32.7644 8.22627 33.1986 8.45831 33.5853 8.76419C33.9721 9.06655 34.2955 9.43571 34.5557 9.87167C34.8158 10.3041 34.9952 10.7981 35.0936 11.3536ZM37.65 18.779H36.2789L40.2447 7.9784H41.5948L45.5606 18.779H44.1895L40.9619 9.68709H40.8776L37.65 18.779ZM38.1563 14.56H43.6832V15.7202H38.1563V14.56ZM55.8075 7.9784V18.779H54.5418L48.6563 10.2988H48.5508V18.779H47.243V7.9784H48.5087L54.4152 16.4797H54.5207V7.9784H55.8075ZM62.6014 7.9784H64.1624L67.8329 16.9437H67.9595L71.63 7.9784H73.191V18.779H71.9675V10.5731H71.8621L68.4869 18.779H67.3055L63.9304 10.5731H63.8249V18.779H62.6014V7.9784ZM75.8134 18.779V7.9784H82.3317V9.13863H77.1213V12.788H81.9942V13.9483H77.1213V17.6188H82.4161V18.779H75.8134Z" fill="white"/>
</svg>
