<svg width="325" height="135" viewBox="0 0 325 135" fill="none" xmlns="http://www.w3.org/2000/svg">
<g clip-path="url(#clip0_432_2719)">
<path d="M213.413 57.0979V50.3241H206.639V57.0979H213.413Z" fill="#E79312"/>
<path d="M220.187 63.8869V57.1131H213.413V63.8869H220.187Z" fill="#E79312"/>
<path d="M213.398 70.6455V63.8717H206.624V70.6455H213.398Z" fill="#E79312"/>
<path d="M213.413 84.2083V77.4345H206.639V84.2083H213.413Z" fill="#E79312"/>
<path d="M220.187 57.0978V50.324H213.413V57.0978H220.187Z" fill="#E79312"/>
<path d="M223.581 33.3667V26.5929H216.807V33.3667H223.581Z" fill="#E79312"/>
<path d="M220.187 77.4345V70.6607H213.413V77.4345H220.187Z" fill="#E79312"/>
<path d="M220.187 84.2235V77.4497H213.413V84.2235H220.187Z" fill="#E79312"/>
<path d="M226.976 63.8717V57.0979H220.202V63.8717H226.976Z" fill="#E79312"/>
<path d="M233.75 57.0979V50.3241H226.976V57.0979H233.75Z" fill="#E79312"/>
<path d="M226.961 70.6607V63.8869H220.187V70.6607H226.961Z" fill="#E79312"/>
<path d="M226.976 84.2083V77.4345H220.202V84.2083H226.976Z" fill="#E79312"/>
<path d="M206.624 43.5503H233.734V16.4246H206.624V43.535V43.5503ZM213.413 36.7612V23.1984H226.976V36.7612H220.202H213.428H213.413Z" fill="#E79312"/>
<path d="M233.734 70.6455V63.8717H226.96V70.6455H233.734Z" fill="#E79312"/>
<path d="M233.75 77.4345V70.6607H226.976V77.4345H233.75Z" fill="#E79312"/>
<path d="M206.624 118.108H233.734V90.9974H206.624V118.108ZM213.413 111.334V97.7712H226.976V111.334H213.413Z" fill="#E79312"/>
<path d="M223.566 101.166H216.792V107.94H223.566V101.166Z" fill="#E79312"/>
<path d="M240.523 57.0978V50.324H233.75V57.0978H240.523Z" fill="#E79312"/>
<path d="M240.523 84.2235V77.4497H233.75V84.2235H240.523Z" fill="#E79312"/>
<path d="M247.312 23.1984V16.4246H240.539V23.1984H247.312Z" fill="#E79312"/>
<path d="M247.297 29.9874V23.2136H240.523V29.9874H247.297Z" fill="#E79312"/>
<path d="M247.297 36.7613V29.9874H240.523V36.7613H247.297Z" fill="#E79312"/>
<path d="M247.297 50.3241V43.5503H240.523V50.3241H247.297Z" fill="#E79312"/>
<path d="M247.297 70.6607V63.8869H240.523V70.6607H247.297Z" fill="#E79312"/>
<path d="M240.523 63.8869V57.1131H233.75V63.8869H240.523Z" fill="#E79312"/>
<path d="M247.297 77.4345V70.6607H240.523V77.4345H247.297Z" fill="#E79312"/>
<path d="M247.297 90.9974V84.2235H240.523V90.9974H247.297Z" fill="#E79312"/>
<path d="M247.297 97.7711V90.9973H240.523V97.7711H247.297Z" fill="#E79312"/>
<path d="M247.297 118.108V111.334H240.523V118.108H247.297Z" fill="#E79312"/>
<path d="M254.071 29.9722V23.1984H247.297V29.9722H254.071Z" fill="#E79312"/>
<path d="M254.086 43.5351V36.7613H247.312V43.5351H254.086Z" fill="#E79312"/>
<path d="M254.071 50.3089V43.5351H247.297V50.3089H254.071Z" fill="#E79312"/>
<path d="M254.086 57.0979V50.3241H247.312V57.0979H254.086Z" fill="#E79312"/>
<path d="M254.071 70.6455V63.8717H247.297V70.6455H254.071Z" fill="#E79312"/>
<path d="M254.086 84.2083V77.4345H247.312V84.2083H254.086Z" fill="#E79312"/>
<path d="M247.312 104.545V97.7711H240.539V104.545H247.312Z" fill="#E79312"/>
<path d="M260.86 23.2136V16.4398H254.086V23.2136H260.86Z" fill="#E79312"/>
<path d="M260.86 29.9874V23.2136H254.086V29.9874H260.86Z" fill="#E79312"/>
<path d="M260.86 36.7612V29.9874H254.086V36.7612H260.86Z" fill="#E79312"/>
<path d="M260.86 57.0978V50.324H254.086V57.0978H260.86Z" fill="#E79312"/>
<path d="M260.86 63.8869V57.1131H254.086V63.8869H260.86Z" fill="#E79312"/>
<path d="M260.86 77.4345V70.6607H254.086V77.4345H260.86Z" fill="#E79312"/>
<path d="M260.86 84.2235V77.4497H254.086V84.2235H260.86Z" fill="#E79312"/>
<path d="M260.86 90.9973V84.2235H254.086V90.9973H260.86Z" fill="#E79312"/>
<path d="M260.86 118.108V111.334H254.086V118.108H260.86Z" fill="#E79312"/>
<path d="M267.634 23.2136V16.4398H260.86V23.2136H267.634Z" fill="#E79312"/>
<path d="M267.634 36.7613V29.9874H260.86V36.7613H267.634Z" fill="#E79312"/>
<path d="M267.649 43.5351V36.7613H260.875V43.5351H267.649Z" fill="#E79312"/>
<path d="M267.634 70.6607V63.8869H260.86V70.6607H267.634Z" fill="#E79312"/>
<path d="M274.423 63.8717V57.0979H267.649V63.8717H274.423Z" fill="#E79312"/>
<path d="M267.634 77.4345V70.6607H260.86V77.4345H267.634Z" fill="#E79312"/>
<path d="M267.634 97.7711V90.9973H260.86V97.7711H267.634Z" fill="#E79312"/>
<path d="M267.634 104.545V97.7711H260.86V104.545H267.634Z" fill="#E79312"/>
<path d="M267.634 111.334V104.56H260.86V111.334H267.634Z" fill="#E79312"/>
<path d="M260.86 104.56V97.7864H254.086V104.56H260.86Z" fill="#E79312"/>
<path d="M254.086 97.7712V90.9974H247.312V97.7712H254.086Z" fill="#E79312"/>
<path d="M267.634 118.108V111.334H260.86V118.108H267.634Z" fill="#E79312"/>
<path d="M274.408 29.9875V23.2137H267.634V29.9875H274.408Z" fill="#E79312"/>
<path d="M274.423 36.7612V29.9874H267.649V36.7612H274.423Z" fill="#E79312"/>
<path d="M274.408 50.3089V43.5351H267.634V50.3089H274.408Z" fill="#E79312"/>
<path d="M267.634 57.0979V50.324H260.86V57.0979H267.634Z" fill="#E79312"/>
<path d="M274.408 70.6455V63.8717H267.634V70.6455H274.408Z" fill="#E79312"/>
<path d="M274.423 84.2083V77.4345H267.649V84.2083H274.423Z" fill="#E79312"/>
<path d="M274.408 90.9821V84.2083H267.634V90.9821H274.408Z" fill="#E79312"/>
<path d="M274.423 104.545V97.7712H267.649V104.545H274.423Z" fill="#E79312"/>
<path d="M281.181 111.334V104.56H274.408V111.334H281.181Z" fill="#E79312"/>
<path d="M281.197 57.0978V50.324H274.423V57.0978H281.197Z" fill="#E79312"/>
<path d="M281.181 90.9973V84.2235H274.408V90.9973H281.181Z" fill="#E79312"/>
<path d="M281.197 97.7712V90.9974H274.423V97.7712H281.197Z" fill="#E79312"/>
<path d="M281.197 118.108V111.334H274.423V118.108H281.197Z" fill="#E79312"/>
<path d="M287.986 63.8717V57.0979H281.212V63.8717H287.986Z" fill="#E79312"/>
<path d="M287.97 57.0978V50.324H281.197V57.0978H287.97Z" fill="#E79312"/>
<path d="M287.97 70.6607V63.8869H281.197V70.6607H287.97Z" fill="#E79312"/>
<path d="M287.97 84.2083V77.4345H281.197V84.2083H287.97Z" fill="#E79312"/>
<path d="M287.97 90.9973V84.2235H281.197V90.9973H287.97Z" fill="#E79312"/>
<path d="M287.97 104.545V97.7711H281.197V104.545H287.97Z" fill="#E79312"/>
<path d="M294.744 70.6455V63.8717H287.97V70.6455H294.744Z" fill="#E79312"/>
<path d="M294.744 90.9821V84.2083H287.97V90.9821H294.744Z" fill="#E79312"/>
<path d="M294.744 97.7711V90.9973H287.97V97.7711H294.744Z" fill="#E79312"/>
<path d="M294.759 104.545V97.7711H287.986V104.545H294.759Z" fill="#E79312"/>
<path d="M294.744 118.108V111.334H287.97V118.108H294.744Z" fill="#E79312"/>
<path d="M301.533 57.0979V50.3241H294.759V57.0979H301.533Z" fill="#E79312"/>
<path d="M301.533 63.8869V57.1131H294.759V63.8869H301.533Z" fill="#E79312"/>
<path d="M301.533 77.4345V70.6607H294.759V77.4345H301.533Z" fill="#E79312"/>
<path d="M301.533 84.2235V77.4497H294.759V84.2235H301.533Z" fill="#E79312"/>
<path d="M301.533 97.7712V90.9974H294.759V97.7712H301.533Z" fill="#E79312"/>
<path d="M308.307 90.9973V84.2235H301.533V90.9973H308.307Z" fill="#E79312"/>
<path d="M301.518 111.319V104.545H294.744V111.319H301.518Z" fill="#E79312"/>
<path d="M298.139 26.5929H291.365V33.3667H298.139V26.5929Z" fill="#E79312"/>
<path d="M281.197 43.5503H308.307V16.4246H281.197V36.7612V43.535V43.5503ZM287.97 36.7612V23.1984H301.533V36.7612H294.759H287.986H287.97Z" fill="#E79312"/>
<path d="M308.307 57.0978V50.324H301.533V57.0978H308.307Z" fill="#E79312"/>
<path d="M308.307 70.6607V63.8869H301.533V70.6607H308.307Z" fill="#E79312"/>
<path d="M308.307 84.2083V77.4345H301.533V84.2083H308.307Z" fill="#E79312"/>
<path d="M308.307 104.545V97.7711H301.533V104.545H308.307Z" fill="#E79312"/>
<path d="M308.307 111.334V104.56H301.533V111.334H308.307Z" fill="#E79312"/>
<path d="M308.307 118.108V111.334H301.533V118.108H308.307Z" fill="#E79312"/>
<path d="M174.247 67.2662L194.005 49.9283V19.8952C194.005 11.0055 201.205 3.80551 210.094 3.80551H304.852C313.741 3.80551 320.941 11.0055 320.941 19.8952V114.652C320.941 123.542 313.741 130.742 304.852 130.742H210.094C201.205 130.742 194.005 123.542 194.005 114.652V84.6193L174.247 67.2814V67.2662Z" stroke="#E79312" stroke-width="7.24064" stroke-linecap="round" stroke-linejoin="round"/>
<path d="M1.52222 35.787H165.25" stroke="#E79312" stroke-width="2.89626" stroke-linecap="round" stroke-linejoin="round"/>
<path d="M1.52222 97.7711H165.25" stroke="#E79312" stroke-width="2.89626" stroke-linecap="round" stroke-linejoin="round"/>
<path d="M5.25155 47.9951C6.77376 46.3054 9.02662 45.453 11.9949 45.453C14.9632 45.453 17.2161 46.3054 18.7383 47.9951C20.2605 49.6847 21.0216 52.105 21.0216 55.2712V56.4889H15.222V54.8754C15.222 53.5359 14.9632 52.5617 14.4457 51.9528C13.9281 51.3439 13.167 51.0395 12.1624 51.0395C11.1577 51.0395 10.3966 51.3439 9.87905 51.9528C9.3615 52.5617 9.10273 53.5359 9.10273 54.8754C9.10273 56.5042 9.54417 57.935 10.4118 59.168C11.2795 60.401 12.5886 61.7862 14.3391 63.3541C15.7852 64.6936 16.9573 65.8657 17.8554 66.8856C18.7535 67.9055 19.5146 69.1385 20.1387 70.5845C20.7628 72.0306 21.0825 73.6898 21.0825 75.5469C21.0825 78.6979 20.3061 81.1334 18.7383 82.8231C17.1856 84.5127 14.9175 85.3651 11.934 85.3651C8.95051 85.3651 6.69765 84.5279 5.12978 82.8231C3.56191 81.1334 2.78558 78.7131 2.78558 75.5469V73.1571H8.58518V75.9427C8.58518 78.4696 9.65072 79.733 11.7666 79.733C13.8824 79.733 14.948 78.4696 14.948 75.9427C14.948 74.3139 14.5065 72.8831 13.6389 71.6501C12.7712 70.4171 11.4621 69.0319 9.71161 67.464C8.26552 66.1245 7.09342 64.9524 6.19532 63.9173C5.29722 62.8974 4.53612 61.6644 3.91201 60.2183C3.28791 58.7723 2.96825 57.113 2.96825 55.256C2.96825 52.105 3.72935 49.6695 5.25155 47.9798V47.9951Z" fill="#E79312"/>
<path d="M42.3781 75.5622C42.3781 78.7131 41.6018 81.1486 40.0339 82.8383C38.4661 84.5279 36.2132 85.3804 33.2297 85.3804C30.2462 85.3804 27.9933 84.5432 26.4254 82.8383C24.8576 81.1486 24.0812 78.7283 24.0812 75.5622V55.2712C24.0812 52.1202 24.8576 49.6847 26.4254 47.9951C27.9781 46.3054 30.2462 45.453 33.2297 45.453C36.2132 45.453 38.4661 46.3054 40.0339 47.9951C41.6018 49.6847 42.3781 52.105 42.3781 55.2712V59.0615H36.5785V54.8754C36.5785 52.3181 35.513 51.0242 33.3971 51.0242C31.2813 51.0242 30.2157 52.3029 30.2157 54.8754V75.9427C30.2157 78.4696 31.2813 79.733 33.3971 79.733C35.513 79.733 36.5785 78.4696 36.5785 75.9427V70.3714H42.3781V75.5622Z" fill="#E79312"/>
<path d="M59.7616 84.9237L58.6961 77.8454H51.1764L50.1108 84.9237H44.4787L50.7197 45.9096H59.6855L65.9265 84.9237H59.7464H59.7616ZM57.8589 72.5482L54.9058 52.8204L51.9527 72.5482H57.8589Z" fill="#E79312"/>
<path d="M74.253 84.9237H68.7426V45.9096H76.4297L82.7317 69.2602V45.9096H88.1964V84.9237H81.8944L74.253 56.6716V84.9237Z" fill="#E79312"/>
<path d="M118.382 45.9096H126.906V84.9237H121.106V56.9456L116.875 84.9237H111.075L106.509 57.3414V84.9237H101.166V45.9096H109.69L114.211 73.6137L118.397 45.9096H118.382Z" fill="#E79312"/>
<path d="M145.918 62.3495V67.9207H137.501V79.3372H148.095V84.9085H131.381V45.8944H148.095V51.4657H137.501V62.3342H145.918V62.3495Z" fill="#E79312"/>
<path d="M151.87 62.182V45.9096H158.005V62.182L157.228 76.2776H152.662L151.885 62.182H151.87ZM157.898 84.9237H151.992V79.0175H157.898V84.9237Z" fill="#E79312"/>
</g>
<defs>
<clipPath id="clip0_432_2719">
<rect width="324.747" height="134.548" fill="white"/>
</clipPath>
</defs>
</svg>
