<svg width="151" height="78" viewBox="0 0 151 78" fill="none" xmlns="http://www.w3.org/2000/svg">
<g clip-path="url(#clip0_432_2600)">
<path d="M142.878 3.33865H31.0496C28.8139 3.33865 27.0015 5.15106 27.0015 7.38678V69.6362C27.0015 71.8719 28.8139 73.6843 31.0496 73.6843H142.878C145.114 73.6843 146.926 71.8719 146.926 69.6362V7.38678C146.926 5.15106 145.114 3.33865 142.878 3.33865Z" fill="#718C31"/>
<path d="M142.995 1.66933C146.142 1.66933 148.704 4.23176 148.704 7.37845V69.6362C148.704 72.7829 146.142 75.3453 142.995 75.3453H7.38679C4.2401 75.3453 1.66933 72.7829 1.66933 69.6278V7.37845C1.66933 4.23176 4.23176 1.66933 7.37845 1.66933H142.987M142.995 0H7.37845C3.30528 0 0 3.30528 0 7.37845V69.6362C0 73.7177 3.30528 77.023 7.38679 77.023H142.995C147.068 77.023 150.373 73.7177 150.373 69.6445V7.37845C150.373 3.30528 147.068 0 142.995 0Z" fill="#718C31"/>
<path d="M141.801 3.33865H7.38681C5.15109 3.33865 3.33868 5.15106 3.33868 7.38678V69.6362C3.33868 71.8719 5.15109 73.6843 7.38681 73.6843H141.801C144.037 73.6843 145.85 71.8719 145.85 69.6362V7.38678C145.85 5.15106 144.037 3.33865 141.801 3.33865Z" fill="#718C31"/>
<path d="M69.6362 4.59067H7.38683C5.84257 4.59067 4.5907 5.84254 4.5907 7.3868V69.6362C4.5907 71.1804 5.84257 72.4323 7.38683 72.4323H69.6362C71.1805 72.4323 72.4323 71.1804 72.4323 69.6362V7.3868C72.4323 5.84254 71.1805 4.59067 69.6362 4.59067Z" fill="white"/>
<path d="M69.6362 5.84265C70.4876 5.84265 71.1803 6.53542 71.1803 7.38678V69.6445C71.1803 70.4959 70.4876 71.1886 69.6362 71.1886H7.38681C6.53545 71.1886 5.84268 70.4959 5.84268 69.6445V7.38678C5.84268 6.53542 6.53545 5.84265 7.38681 5.84265H69.6445M69.6362 3.33865H7.38681C5.14991 3.33865 3.33868 5.14988 3.33868 7.38678V69.6445C3.33868 71.8814 5.14991 73.6926 7.38681 73.6926H69.6445C71.8814 73.6926 73.6927 71.8814 73.6927 69.6445V7.38678C73.6927 5.14988 71.8814 3.33865 69.6445 3.33865H69.6362Z" fill="#718C31"/>
<path d="M32.7606 9.73221H28.9211V13.5717H32.7606V9.73221Z" fill="#718C31"/>
<path d="M32.7606 17.4111H28.9211V21.2506H32.7606V17.4111Z" fill="#718C31"/>
<path d="M36.5917 13.5717H32.7523V17.4111H36.5917V13.5717Z" fill="#718C31"/>
<path d="M40.4312 9.73221H36.5917V13.5717H40.4312V9.73221Z" fill="#718C31"/>
<path d="M48.1018 9.73221H44.2623V13.5717H48.1018V9.73221Z" fill="#718C31"/>
<path d="M19.3309 15.4914H15.4914V19.3309H19.3309V15.4914Z" fill="#718C31"/>
<path d="M44.2707 13.5717H40.4312V17.4111H44.2707V13.5717Z" fill="#718C31"/>
<path d="M48.1018 13.5717H44.2623V17.4111H48.1018V13.5717Z" fill="#718C31"/>
<path d="M36.5917 17.4111H32.7523V21.2506H36.5917V17.4111Z" fill="#718C31"/>
<path d="M32.7606 21.2422H28.9211V25.0817H32.7606V21.2422Z" fill="#718C31"/>
<path d="M40.4312 17.4111H36.5917V21.2506H40.4312V17.4111Z" fill="#718C31"/>
<path d="M21.2422 9.73221H13.5716H9.73218V13.5717V17.4111V25.0817H25.0817V9.73221H21.2422ZM21.2422 17.4111V21.2506H13.5716V13.58H21.2422V17.4195V17.4111Z" fill="#718C31"/>
<path d="M44.2707 21.2422H40.4312V25.0817H44.2707V21.2422Z" fill="#718C31"/>
<path d="M63.4513 9.73221H51.9412V25.0817H67.2907V17.4111V13.5717V9.73221H63.4513ZM63.4513 17.4111V21.2506H55.7807V13.58H63.4513V17.4195V17.4111Z" fill="#718C31"/>
<path d="M61.5315 15.4914H57.6921V19.3309H61.5315V15.4914Z" fill="#718C31"/>
<path d="M32.7606 25.0817H28.9211V28.9212H32.7606V25.0817Z" fill="#718C31"/>
<path d="M48.1018 25.0817H44.2623V28.9212H48.1018V25.0817Z" fill="#718C31"/>
<path d="M48.1018 21.2422H44.2623V25.0817H48.1018V21.2422Z" fill="#718C31"/>
<path d="M13.5716 28.9212H9.73218V32.7606H13.5716V28.9212Z" fill="#718C31"/>
<path d="M17.4111 28.9212H13.5717V32.7606H17.4111V28.9212Z" fill="#718C31"/>
<path d="M21.2506 28.9212H17.4111V32.7606H21.2506V28.9212Z" fill="#718C31"/>
<path d="M28.9211 28.9212H25.0817V32.7606H28.9211V28.9212Z" fill="#718C31"/>
<path d="M40.4312 28.9212H36.5917V32.7606H40.4312V28.9212Z" fill="#718C31"/>
<path d="M36.5917 25.0817H32.7523V28.9212H36.5917V25.0817Z" fill="#718C31"/>
<path d="M44.2707 28.9212H40.4312V32.7606H44.2707V28.9212Z" fill="#718C31"/>
<path d="M51.9412 28.9212H48.1017V32.7606H51.9412V28.9212Z" fill="#718C31"/>
<path d="M55.7807 28.9212H51.9412V32.7606H55.7807V28.9212Z" fill="#718C31"/>
<path d="M67.2908 28.9212H63.4513V32.7606H67.2908V28.9212Z" fill="#718C31"/>
<path d="M17.4111 32.7523H13.5717V36.5918H17.4111V32.7523Z" fill="#718C31"/>
<path d="M25.0817 32.7523H21.2422V36.5918H25.0817V32.7523Z" fill="#718C31"/>
<path d="M32.7606 32.7523H28.9211V36.5918H32.7606V32.7523Z" fill="#718C31"/>
<path d="M40.4312 32.7523H36.5917V36.5918H40.4312V32.7523Z" fill="#718C31"/>
<path d="M48.1018 32.7523H44.2623V36.5918H48.1018V32.7523Z" fill="#718C31"/>
<path d="M59.6118 28.9212H55.7723V32.7606H59.6118V28.9212Z" fill="#718C31"/>
<path d="M13.5716 36.5918H9.73218V40.4312H13.5716V36.5918Z" fill="#718C31"/>
<path d="M17.4111 36.5918H13.5717V40.4312H17.4111V36.5918Z" fill="#718C31"/>
<path d="M21.2506 36.5918H17.4111V40.4312H21.2506V36.5918Z" fill="#718C31"/>
<path d="M36.5917 36.5918H32.7523V40.4312H36.5917V36.5918Z" fill="#718C31"/>
<path d="M44.2707 36.5918H40.4312V40.4312H44.2707V36.5918Z" fill="#718C31"/>
<path d="M48.1018 36.5918H44.2623V40.4312H48.1018V36.5918Z" fill="#718C31"/>
<path d="M51.9412 36.5918H48.1017V40.4312H51.9412V36.5918Z" fill="#718C31"/>
<path d="M67.2908 36.5918H63.4513V40.4312H67.2908V36.5918Z" fill="#718C31"/>
<path d="M13.5716 40.4312H9.73218V44.2707H13.5716V40.4312Z" fill="#718C31"/>
<path d="M21.2506 40.4312H17.4111V44.2707H21.2506V40.4312Z" fill="#718C31"/>
<path d="M25.0817 40.4312H21.2422V44.2707H25.0817V40.4312Z" fill="#718C31"/>
<path d="M32.7606 36.5918H28.9211V40.4312H32.7606V36.5918Z" fill="#718C31"/>
<path d="M40.4312 40.4312H36.5917V44.2707H40.4312V40.4312Z" fill="#718C31"/>
<path d="M36.5917 44.2623H32.7523V48.1018H36.5917V44.2623Z" fill="#718C31"/>
<path d="M55.7807 40.4312H51.9412V44.2707H55.7807V40.4312Z" fill="#718C31"/>
<path d="M59.6118 40.4312H55.7723V44.2707H59.6118V40.4312Z" fill="#718C31"/>
<path d="M63.4513 40.4312H59.6118V44.2707H63.4513V40.4312Z" fill="#718C31"/>
<path d="M59.6118 36.5918H55.7723V40.4312H59.6118V36.5918Z" fill="#718C31"/>
<path d="M55.7807 32.7523H51.9412V36.5918H55.7807V32.7523Z" fill="#718C31"/>
<path d="M67.2908 40.4312H63.4513V44.2707H67.2908V40.4312Z" fill="#718C31"/>
<path d="M17.4111 44.2623H13.5717V48.1018H17.4111V44.2623Z" fill="#718C31"/>
<path d="M21.2506 44.2623H17.4111V48.1018H21.2506V44.2623Z" fill="#718C31"/>
<path d="M28.9211 44.2623H25.0817V48.1018H28.9211V44.2623Z" fill="#718C31"/>
<path d="M32.7606 40.4312H28.9211V44.2707H32.7606V40.4312Z" fill="#718C31"/>
<path d="M40.4312 44.2623H36.5917V48.1018H40.4312V44.2623Z" fill="#718C31"/>
<path d="M48.1018 44.2623H44.2623V48.1018H48.1018V44.2623Z" fill="#718C31"/>
<path d="M44.1872 48.1853H40.3477V52.0247H44.1872V48.1853Z" fill="#718C31"/>
<path d="M51.9412 44.2623H48.1017V48.1018H51.9412V44.2623Z" fill="#718C31"/>
<path d="M59.6118 44.2623H55.7723V48.1018H59.6118V44.2623Z" fill="#718C31"/>
<path d="M63.4513 48.1018H59.6118V51.9413H63.4513V48.1018Z" fill="#718C31"/>
<path d="M32.7606 48.1018H28.9211V51.9413H32.7606V48.1018Z" fill="#718C31"/>
<path d="M51.9412 48.1018H48.1017V51.9413H51.9412V48.1018Z" fill="#718C31"/>
<path d="M55.7807 48.1018H51.9412V51.9413H55.7807V48.1018Z" fill="#718C31"/>
<path d="M67.2908 48.1018H63.4513V51.9413H67.2908V48.1018Z" fill="#718C31"/>
<path d="M36.5917 51.9413H32.7523V55.7807H36.5917V51.9413Z" fill="#718C31"/>
<path d="M32.7606 51.9413H28.9211V55.7807H32.7606V51.9413Z" fill="#718C31"/>
<path d="M40.4312 51.9413H36.5917V55.7807H40.4312V51.9413Z" fill="#718C31"/>
<path d="M48.1018 51.9413H44.2623V55.7807H48.1018V51.9413Z" fill="#718C31"/>
<path d="M59.6118 51.9413H55.7723V55.7807H59.6118V51.9413Z" fill="#718C31"/>
<path d="M40.4312 55.7724H36.5917V59.6119H40.4312V55.7724Z" fill="#718C31"/>
<path d="M51.9412 55.7724H48.1017V59.6119H51.9412V55.7724Z" fill="#718C31"/>
<path d="M55.7807 55.7724H51.9412V59.6119H55.7807V55.7724Z" fill="#718C31"/>
<path d="M59.6118 55.7724H55.7723V59.6119H59.6118V55.7724Z" fill="#718C31"/>
<path d="M67.2908 55.7724H63.4513V59.6119H67.2908V55.7724Z" fill="#718C31"/>
<path d="M32.7606 59.6118H28.9211V63.4513H32.7606V59.6118Z" fill="#718C31"/>
<path d="M36.5917 59.6118H32.7523V63.4513H36.5917V59.6118Z" fill="#718C31"/>
<path d="M44.2707 59.6118H40.4312V63.4513H44.2707V59.6118Z" fill="#718C31"/>
<path d="M48.1018 59.6118H44.2623V63.4513H48.1018V59.6118Z" fill="#718C31"/>
<path d="M55.7807 59.6118H51.9412V63.4513H55.7807V59.6118Z" fill="#718C31"/>
<path d="M51.9412 63.4513H48.1017V67.2908H51.9412V63.4513Z" fill="#718C31"/>
<path d="M63.4513 59.6118H59.6118V63.4513H63.4513V59.6118Z" fill="#718C31"/>
<path d="M19.3309 57.6921H15.4914V61.5316H19.3309V57.6921Z" fill="#718C31"/>
<path d="M21.2422 51.9413H9.73218V67.2908H13.5716H25.0817V63.4513V51.9413H21.2422ZM21.2422 59.6119V63.4513H13.5716V55.7807H17.4111H21.2506V59.6202L21.2422 59.6119Z" fill="#718C31"/>
<path d="M32.7606 63.4513H28.9211V67.2908H32.7606V63.4513Z" fill="#718C31"/>
<path d="M40.4312 63.4513H36.5917V67.2908H40.4312V63.4513Z" fill="#718C31"/>
<path d="M48.1018 63.4513H44.2623V67.2908H48.1018V63.4513Z" fill="#718C31"/>
<path d="M59.6118 63.4513H55.7723V67.2908H59.6118V63.4513Z" fill="#718C31"/>
<path d="M63.4513 63.4513H59.6118V67.2908H63.4513V63.4513Z" fill="#718C31"/>
<path d="M67.2908 63.4513H63.4513V67.2908H67.2908V63.4513Z" fill="#718C31"/>
<path d="M82.1812 25.4657V9.73221H98.1317" stroke="white" stroke-width="1.38708" stroke-linecap="round" stroke-linejoin="round"/>
<path d="M135.633 25.4657V9.73221H119.683" stroke="white" stroke-width="1.38708" stroke-linecap="round" stroke-linejoin="round"/>
<path d="M121.519 69.2856H135.633V51.5072" stroke="white" stroke-width="1.38708" stroke-linecap="round" stroke-linejoin="round"/>
<path d="M96.2954 69.2856H82.1812V51.5072" stroke="white" stroke-width="1.38708" stroke-linecap="round" stroke-linejoin="round"/>
<path d="M89.5096 15.2994C90.2441 14.4814 91.3291 14.0724 92.7648 14.0724C94.2004 14.0724 95.2855 14.4814 96.02 15.2994C96.7545 16.1174 97.1217 17.2859 97.1217 18.8134V19.406H94.3172V18.6214C94.3172 17.9787 94.192 17.5029 93.9416 17.2108C93.6912 16.9187 93.324 16.7684 92.8399 16.7684C92.3558 16.7684 91.9885 16.9187 91.7381 17.2108C91.4877 17.5113 91.3625 17.9787 91.3625 18.6214C91.3625 19.4143 91.5712 20.0987 91.9969 20.6913C92.4142 21.284 93.0485 21.96 93.8916 22.7112C94.5927 23.3539 95.1602 23.9299 95.5859 24.4223C96.02 24.9148 96.3872 25.5157 96.6877 26.2168C96.9965 26.918 97.1468 27.7192 97.1468 28.6123C97.1468 30.1398 96.7712 31.3083 96.0116 32.1263C95.2604 32.9442 94.1587 33.3532 92.723 33.3532C91.2874 33.3532 90.194 32.9442 89.4344 32.1263C88.6832 31.3083 88.3076 30.1398 88.3076 28.6123V27.4521H91.1121V28.796C91.1121 30.0146 91.6213 30.6239 92.6479 30.6239C93.6745 30.6239 94.1837 30.0146 94.1837 28.796C94.1837 28.003 93.975 27.3186 93.5493 26.726C93.132 26.1334 92.4977 25.4573 91.6547 24.7061C90.9535 24.0634 90.386 23.4875 89.9603 22.995C89.5263 22.5026 89.159 21.9016 88.8585 21.2005C88.5497 20.4994 88.3995 19.6981 88.3995 18.805C88.3995 17.2776 88.7667 16.109 89.5012 15.2911L89.5096 15.2994Z" fill="white"/>
<path d="M107.438 28.6123C107.438 30.1398 107.063 31.3083 106.303 32.1263C105.552 32.9442 104.458 33.3532 103.014 33.3532C101.57 33.3532 100.485 32.9442 99.7259 32.1263C98.9747 31.3083 98.5907 30.1398 98.5907 28.6123V18.8134C98.5907 17.2859 98.9663 16.1174 99.7259 15.2994C100.485 14.4814 101.57 14.0724 103.014 14.0724C104.458 14.0724 105.543 14.4814 106.303 15.2994C107.063 16.1174 107.438 17.2859 107.438 18.8134V20.6413H104.634V18.6214C104.634 17.3861 104.125 16.7601 103.098 16.7601C102.071 16.7601 101.562 17.3777 101.562 18.6214V28.796C101.562 30.0146 102.071 30.6239 103.098 30.6239C104.125 30.6239 104.634 30.0146 104.634 28.796V26.1H107.438V28.604V28.6123Z" fill="white"/>
<path d="M115.843 33.1362L115.334 29.7141H111.695L111.186 33.1362H108.465L111.478 14.2895H115.81L118.823 33.1362H115.835H115.843ZM114.925 27.16L113.498 17.6282L112.071 27.16H114.925Z" fill="white"/>
<path d="M122.838 33.1362H120.175V14.2895H123.889L126.936 25.5742V14.2895H129.574V33.1362H126.527L122.838 19.4811V33.1362Z" fill="white"/>
<path d="M101.111 35.8155H107.313V64.1941H103.098V43.845L100.018 64.1941H95.8029L92.481 44.1288V64.1941H88.5914V35.8155H94.793L98.0732 55.9643L101.111 35.8155Z" fill="white"/>
<path d="M121.135 47.7762V51.8327H115.017V60.146H122.721V64.2025H110.56V35.8238H122.721V39.8803H115.017V47.7846H121.135V47.7762Z" fill="white"/>
<path d="M125.475 47.6594V35.8238H129.932V47.6594L129.365 57.9174H126.043L125.475 47.6594ZM129.849 64.2025H125.55V59.9039H129.849V64.2025Z" fill="white"/>
</g>
<defs>
<clipPath id="clip0_432_2600">
<rect width="150.373" height="77.023" fill="white"/>
</clipPath>
</defs>
</svg>
