<svg width="151" height="282" viewBox="0 0 151 282" fill="none" xmlns="http://www.w3.org/2000/svg">
<g clip-path="url(#clip0_432_2258)">
<path d="M85.9807 131.219H93.1766V124.023H85.9807V131.219Z" fill="#2076A8"/>
<path d="M85.9807 116.842H93.1766V109.646H85.9807V116.842Z" fill="#2076A8"/>
<path d="M78.7847 124.038H85.9807V116.842H78.7847V124.038Z" fill="#2076A8"/>
<path d="M71.5887 131.219H78.7847V124.023H71.5887V131.219Z" fill="#2076A8"/>
<path d="M57.1968 131.219H64.3928V124.023H57.1968V131.219Z" fill="#2076A8"/>
<path d="M111.159 120.432H118.355V113.236H111.159V120.432Z" fill="#2076A8"/>
<path d="M64.3928 124.038H71.5887V116.842H64.3928V124.038Z" fill="#2076A8"/>
<path d="M57.1968 124.038H64.3928V116.842H57.1968V124.038Z" fill="#2076A8"/>
<path d="M78.7847 116.842H85.9807V109.646H78.7847V116.842Z" fill="#2076A8"/>
<path d="M85.9807 109.646H93.1766V102.45H85.9807V109.646Z" fill="#2076A8"/>
<path d="M71.5887 116.842H78.7847V109.646H71.5887V116.842Z" fill="#2076A8"/>
<path d="M107.569 131.219H114.765H121.96H129.156V102.435H100.373V131.219H107.569ZM107.569 116.827V109.631H121.96V124.023H107.569V116.827Z" fill="#2076A8"/>
<path d="M64.3928 109.646H71.5887V102.45H64.3928V109.646Z" fill="#2076A8"/>
<path d="M28.4129 131.219H50.0008V102.435H21.217V131.219H28.4129ZM28.4129 116.827V109.631H42.8049V124.023H28.4129V116.827Z" fill="#2076A8"/>
<path d="M39.2143 113.236H32.0183V120.432H39.2143V113.236Z" fill="#2076A8"/>
<path d="M85.9807 102.45H93.1766V95.2538H85.9807V102.45Z" fill="#2076A8"/>
<path d="M57.1968 102.45H64.3928V95.2538H57.1968V102.45Z" fill="#2076A8"/>
<path d="M57.1968 109.646H64.3928V102.45H57.1968V109.646Z" fill="#2076A8"/>
<path d="M121.946 95.239H129.142V88.043H121.946V95.239Z" fill="#2076A8"/>
<path d="M114.75 95.239H121.946V88.043H114.75V95.239Z" fill="#2076A8"/>
<path d="M107.554 95.239H114.75V88.043H107.554V95.239Z" fill="#2076A8"/>
<path d="M93.1766 95.239H100.373V88.043H93.1766V95.239Z" fill="#2076A8"/>
<path d="M71.5887 95.239H78.7847V88.043H71.5887V95.239Z" fill="#2076A8"/>
<path d="M78.7847 102.45H85.9807V95.2538H78.7847V102.45Z" fill="#2076A8"/>
<path d="M64.3928 95.239H71.5887V88.043H64.3928V95.239Z" fill="#2076A8"/>
<path d="M50.0008 95.239H57.1968V88.043H50.0008V95.239Z" fill="#2076A8"/>
<path d="M42.8049 95.239H50.0008V88.043H42.8049V95.239Z" fill="#2076A8"/>
<path d="M21.2318 95.239H28.4278V88.043H21.2318V95.239Z" fill="#2076A8"/>
<path d="M114.75 88.043H121.946V80.847H114.75V88.043Z" fill="#2076A8"/>
<path d="M100.358 88.043H107.554V80.847H100.358V88.043Z" fill="#2076A8"/>
<path d="M85.9807 88.043H93.1766V80.847H85.9807V88.043Z" fill="#2076A8"/>
<path d="M71.5887 88.043H78.7847V80.847H71.5887V88.043Z" fill="#2076A8"/>
<path d="M57.1968 88.043H64.3928V80.847H57.1968V88.043Z" fill="#2076A8"/>
<path d="M35.6237 95.239H42.8197V88.043H35.6237V95.239Z" fill="#2076A8"/>
<path d="M121.946 80.847H129.142V73.6511H121.946V80.847Z" fill="#2076A8"/>
<path d="M114.75 80.847H121.946V73.6511H114.75V80.847Z" fill="#2076A8"/>
<path d="M107.554 80.847H114.75V73.6511H107.554V80.847Z" fill="#2076A8"/>
<path d="M78.7847 80.847H85.9807V73.6511H78.7847V80.847Z" fill="#2076A8"/>
<path d="M64.3928 80.847H71.5887V73.6511H64.3928V80.847Z" fill="#2076A8"/>
<path d="M57.1968 80.847H64.3928V73.6511H57.1968V80.847Z" fill="#2076A8"/>
<path d="M50.0008 80.847H57.1968V73.6511H50.0008V80.847Z" fill="#2076A8"/>
<path d="M21.2318 80.847H28.4278V73.6511H21.2318V80.847Z" fill="#2076A8"/>
<path d="M121.946 73.6511H129.142V66.4551H121.946V73.6511Z" fill="#2076A8"/>
<path d="M107.554 73.6511H114.75V66.4551H107.554V73.6511Z" fill="#2076A8"/>
<path d="M100.358 73.6511H107.554V66.4551H100.358V73.6511Z" fill="#2076A8"/>
<path d="M85.9807 80.847H93.1766V73.6511H85.9807V80.847Z" fill="#2076A8"/>
<path d="M71.5887 73.6511H78.7847V66.4551H71.5887V73.6511Z" fill="#2076A8"/>
<path d="M78.7847 66.4551H85.9807V59.2591H78.7847V66.4551Z" fill="#2076A8"/>
<path d="M42.8049 73.6511H50.0008V66.4551H42.8049V73.6511Z" fill="#2076A8"/>
<path d="M35.6237 73.6511H42.8197V66.4551H35.6237V73.6511Z" fill="#2076A8"/>
<path d="M28.4278 73.6511H35.6237V66.4551H28.4278V73.6511Z" fill="#2076A8"/>
<path d="M35.6237 80.847H42.8197V73.6511H35.6237V80.847Z" fill="#2076A8"/>
<path d="M42.8049 88.043H50.0008V80.847H42.8049V88.043Z" fill="#2076A8"/>
<path d="M21.2318 73.6511H28.4278V66.4551H21.2318V73.6511Z" fill="#2076A8"/>
<path d="M114.75 66.4551H121.946V59.2591H114.75V66.4551Z" fill="#2076A8"/>
<path d="M107.554 66.4551H114.75V59.2591H107.554V66.4551Z" fill="#2076A8"/>
<path d="M93.1766 66.4551H100.373V59.2591H93.1766V66.4551Z" fill="#2076A8"/>
<path d="M85.9807 73.6511H93.1766V66.4551H85.9807V73.6511Z" fill="#2076A8"/>
<path d="M71.5887 66.4551H78.7847V59.2591H71.5887V66.4551Z" fill="#2076A8"/>
<path d="M57.1968 66.4551H64.3928V59.2591H57.1968V66.4551Z" fill="#2076A8"/>
<path d="M64.5411 59.1108H71.7371V51.9148H64.5411V59.1108Z" fill="#2076A8"/>
<path d="M50.0008 66.4551H57.1968V59.2591H50.0008V66.4551Z" fill="#2076A8"/>
<path d="M35.6237 66.4551H42.8197V59.2591H35.6237V66.4551Z" fill="#2076A8"/>
<path d="M28.4278 59.274H35.6237V52.078H28.4278V59.274Z" fill="#2076A8"/>
<path d="M85.9807 59.274H93.1766V52.078H85.9807V59.274Z" fill="#2076A8"/>
<path d="M50.0008 59.274H57.1968V52.078H50.0008V59.274Z" fill="#2076A8"/>
<path d="M42.8049 59.274H50.0008V52.078H42.8049V59.274Z" fill="#2076A8"/>
<path d="M21.2318 59.274H28.4278V52.078H21.2318V59.274Z" fill="#2076A8"/>
<path d="M78.7847 52.078H85.9807V44.882H78.7847V52.078Z" fill="#2076A8"/>
<path d="M85.9807 52.078H93.1766V44.882H85.9807V52.078Z" fill="#2076A8"/>
<path d="M71.5887 52.078H78.7847V44.882H71.5887V52.078Z" fill="#2076A8"/>
<path d="M57.1968 52.078H64.3928V44.882H57.1968V52.078Z" fill="#2076A8"/>
<path d="M35.6237 52.078H42.8197V44.882H35.6237V52.078Z" fill="#2076A8"/>
<path d="M71.5887 44.882H78.7847V37.6861H71.5887V44.882Z" fill="#2076A8"/>
<path d="M50.0008 44.882H57.1968V37.6861H50.0008V44.882Z" fill="#2076A8"/>
<path d="M42.8049 44.882H50.0008V37.6861H42.8049V44.882Z" fill="#2076A8"/>
<path d="M35.6237 44.882H42.8197V37.6861H35.6237V44.882Z" fill="#2076A8"/>
<path d="M21.2318 44.882H28.4278V37.6861H21.2318V44.882Z" fill="#2076A8"/>
<path d="M85.9807 37.6861H93.1766V30.4901H85.9807V37.6861Z" fill="#2076A8"/>
<path d="M78.7847 37.6861H85.9807V30.4901H78.7847V37.6861Z" fill="#2076A8"/>
<path d="M64.3928 37.6861H71.5887V30.4901H64.3928V37.6861Z" fill="#2076A8"/>
<path d="M57.1968 37.6861H64.3928V30.4901H57.1968V37.6861Z" fill="#2076A8"/>
<path d="M42.8049 37.6861H50.0008V30.4901H42.8049V37.6861Z" fill="#2076A8"/>
<path d="M50.0008 30.4901H57.1968V23.2942H50.0008V30.4901Z" fill="#2076A8"/>
<path d="M28.4278 37.6861H35.6237V30.4901H28.4278V37.6861Z" fill="#2076A8"/>
<path d="M118.355 34.0807H111.159V41.2766H118.355V34.0807Z" fill="#2076A8"/>
<path d="M107.569 52.078H129.156V23.2942H100.373V52.078H107.569ZM107.569 37.6861V30.4901H121.96V44.882H107.569V37.6861Z" fill="#2076A8"/>
<path d="M85.9807 30.4901H93.1766V23.2942H85.9807V30.4901Z" fill="#2076A8"/>
<path d="M71.5887 30.4901H78.7847V23.2942H71.5887V30.4901Z" fill="#2076A8"/>
<path d="M57.1968 30.4901H64.3928V23.2942H57.1968V30.4901Z" fill="#2076A8"/>
<path d="M35.6237 30.4901H42.8197V23.2942H35.6237V30.4901Z" fill="#2076A8"/>
<path d="M28.4278 30.4901H35.6237V23.2942H28.4278V30.4901Z" fill="#2076A8"/>
<path d="M21.2318 30.4901H28.4278V23.2942H21.2318V30.4901Z" fill="#2076A8"/>
<path d="M127.302 140.625H23.0568C19.9757 140.625 17.478 143.123 17.478 146.204V258.209C17.478 261.29 19.9757 263.788 23.0568 263.788H127.302C130.383 263.788 132.881 261.29 132.881 258.209V146.204C132.881 143.123 130.383 140.625 127.302 140.625Z" fill="#2076A8"/>
<path d="M131.738 2.96741C140.373 2.96741 147.406 10.0002 147.406 18.6353V262.63C147.406 271.266 140.373 278.298 131.738 278.298H18.6353C10.0002 278.298 2.96741 271.266 2.96741 262.63V18.6353C2.96741 10.0002 10.0002 2.96741 18.6353 2.96741H131.738ZM131.738 0H18.6353C8.35325 0 0 8.35326 0 18.6353V262.63C0 272.913 8.35325 281.266 18.6353 281.266H131.738C142.02 281.266 150.373 272.913 150.373 262.63V18.6353C150.373 8.35326 142.02 0 131.738 0Z" fill="#2076A8"/>
<path d="M131.738 11.8696C135.462 11.8696 138.504 14.9112 138.504 18.6353V262.63C138.504 266.355 135.462 269.396 131.738 269.396H18.6353C14.9112 269.396 11.8696 266.355 11.8696 262.63V18.6353C11.8696 14.9112 14.9112 11.8696 18.6353 11.8696H131.738ZM131.738 5.93481H18.6353C11.6174 5.93481 5.93481 11.6174 5.93481 18.6353V262.63C5.93481 269.648 11.6174 275.331 18.6353 275.331H131.738C138.756 275.331 144.439 269.648 144.439 262.63V18.6353C144.439 11.6174 138.756 5.93481 131.738 5.93481Z" fill="#2076A8"/>
<path d="M34.867 151.724C36.3953 150.017 38.6653 149.172 41.6476 149.172C44.6298 149.172 46.8999 150.017 48.4281 151.724C49.9563 153.43 50.7278 155.863 50.7278 159.038V160.27H44.8969V158.638C44.8969 157.287 44.6298 156.308 44.1105 155.7C43.5912 155.077 42.8197 154.78 41.8108 154.78C40.8019 154.78 40.0303 155.092 39.511 155.7C38.9917 156.323 38.7247 157.302 38.7247 158.638C38.7247 160.285 39.1549 161.724 40.0452 162.955C40.9354 164.187 42.2411 165.596 43.9918 167.154C45.4459 168.504 46.6328 169.691 47.523 170.715C48.4281 171.739 49.1848 172.985 49.8228 174.439C50.4608 175.893 50.7724 177.555 50.7724 179.424C50.7724 182.599 49.986 185.033 48.4133 186.739C46.8405 188.445 44.5556 189.291 41.5734 189.291C38.5911 189.291 36.3062 188.445 34.7335 186.739C33.1608 185.033 32.3744 182.599 32.3744 179.424V177.021H38.2054V179.825C38.2054 182.362 39.2736 183.638 41.3953 183.638C43.517 183.638 44.5853 182.362 44.5853 179.825C44.5853 178.178 44.155 176.739 43.2648 175.507C42.3746 174.276 41.0689 172.866 39.3182 171.308C37.8641 169.958 36.6772 168.771 35.7869 167.748C34.8819 166.724 34.1252 165.478 33.4872 164.023C32.8492 162.569 32.5376 160.908 32.5376 159.038C32.5376 155.863 33.3092 153.43 34.8374 151.724H34.867Z" fill="white"/>
<path d="M72.197 179.439C72.197 182.614 71.4107 185.048 69.8379 186.754C68.2652 188.46 65.9952 189.306 62.9981 189.306C60.001 189.306 57.7309 188.46 56.1582 186.754C54.5855 185.048 53.7991 182.614 53.7991 179.439V159.038C53.7991 155.863 54.5855 153.43 56.1582 151.724C57.7309 150.017 60.001 149.172 62.9981 149.172C65.9952 149.172 68.2652 150.017 69.8379 151.724C71.4107 153.43 72.197 155.863 72.197 159.038V162.851H66.3661V158.652C66.3661 156.071 65.2978 154.78 63.1761 154.78C61.0544 154.78 59.9862 156.071 59.9862 158.652V179.84C59.9862 182.377 61.0544 183.653 63.1761 183.653C65.2978 183.653 66.3661 182.377 66.3661 179.84V174.231H72.197V179.439Z" fill="white"/>
<path d="M89.6899 188.861L88.6216 181.739H81.0548L79.9865 188.861H74.3336L80.6096 149.632H89.6306L95.9066 188.861H89.6899ZM87.7759 176.412L84.8085 156.575L81.8411 176.412H87.7759Z" fill="white"/>
<path d="M104.26 188.861H98.7108V149.632H106.441L112.776 173.119V149.632H118.266V188.861H111.931L104.245 160.448V188.861H104.26Z" fill="white"/>
<path d="M59.0217 194.439H71.93V253.506H63.1464V211.146L56.7368 253.506H47.9682L41.0541 211.739V253.506H32.9531V194.439H45.8613L52.7012 236.384L59.0366 194.439H59.0217Z" fill="white"/>
<path d="M100.699 219.336V227.778H87.954V245.078H103.993V253.521H78.6808V194.454H103.993V202.897H87.954V219.351H100.699V219.336Z" fill="white"/>
<path d="M109.735 219.084V194.439H119.023V219.084L117.851 240.434H110.937L109.75 219.084H109.735ZM118.845 253.506H109.898V244.559H118.845V253.506Z" fill="white"/>
</g>
<defs>
<clipPath id="clip0_432_2258">
<rect width="150.373" height="281.266" fill="white"/>
</clipPath>
</defs>
</svg>
