<svg width="151" height="193" viewBox="0 0 151 193" fill="none" xmlns="http://www.w3.org/2000/svg">
<rect width="100" height="128" rx="4" fill="black"/>
<rect x="3" y="3" width="94" height="94" rx="4" fill="white"/>
<path d="M21.0101 109.345C20.9425 108.774 20.6683 108.331 20.1875 108.015C19.7066 107.699 19.1168 107.542 18.4181 107.542C17.9072 107.542 17.4602 107.624 17.077 107.79C16.6976 107.955 16.4008 108.182 16.1867 108.471C15.9763 108.761 15.8711 109.089 15.8711 109.458C15.8711 109.766 15.9444 110.03 16.0909 110.252C16.2412 110.47 16.4328 110.652 16.6657 110.799C16.8986 110.941 17.1427 111.06 17.3982 111.154C17.6536 111.244 17.8884 111.317 18.1026 111.373L19.2746 111.689C19.5751 111.768 19.9095 111.877 20.2776 112.016C20.6495 112.155 21.0045 112.344 21.3426 112.585C21.6844 112.822 21.9662 113.126 22.1878 113.498C22.4095 113.87 22.5203 114.326 22.5203 114.867C22.5203 115.491 22.3569 116.054 22.0301 116.557C21.707 117.061 21.2337 117.461 20.6101 117.758C19.9902 118.054 19.237 118.203 18.3505 118.203C17.524 118.203 16.8084 118.069 16.2036 117.803C15.6026 117.536 15.1292 117.164 14.7836 116.687C14.4418 116.21 14.2483 115.656 14.2032 115.025H15.6458C15.6833 115.461 15.8298 115.821 16.0853 116.107C16.3445 116.388 16.6713 116.599 17.0657 116.738C17.4639 116.873 17.8922 116.941 18.3505 116.941C18.8839 116.941 19.3629 116.854 19.7874 116.681C20.2119 116.505 20.5481 116.261 20.796 115.949C21.044 115.633 21.1679 115.265 21.1679 114.844C21.1679 114.461 21.0609 114.15 20.8467 113.909C20.6326 113.669 20.3509 113.473 20.0015 113.323C19.6521 113.173 19.2746 113.041 18.8689 112.929L17.4489 112.523C16.5473 112.264 15.8336 111.894 15.3077 111.413C14.7817 110.932 14.5188 110.303 14.5188 109.525C14.5188 108.879 14.6935 108.316 15.0428 107.835C15.3959 107.35 15.8693 106.974 16.4628 106.708C17.0601 106.437 17.7269 106.302 18.4632 106.302C19.207 106.302 19.8681 106.435 20.4467 106.702C21.0252 106.965 21.4835 107.326 21.8216 107.784C22.1634 108.242 22.3437 108.763 22.3625 109.345H21.0101ZM34.1042 110.066H32.7067C32.6241 109.664 32.4794 109.311 32.2728 109.007C32.07 108.702 31.822 108.447 31.529 108.24C31.2398 108.03 30.9186 107.872 30.5655 107.767C30.2123 107.662 29.8442 107.609 29.461 107.609C28.7623 107.609 28.1293 107.786 27.5621 108.139C26.9986 108.492 26.5497 109.012 26.2153 109.7C25.8848 110.387 25.7195 111.231 25.7195 112.23C25.7195 113.229 25.8848 114.073 26.2153 114.76C26.5497 115.447 26.9986 115.968 27.5621 116.321C28.1293 116.674 28.7623 116.85 29.461 116.85C29.8442 116.85 30.2123 116.798 30.5655 116.693C30.9186 116.588 31.2398 116.432 31.529 116.225C31.822 116.015 32.07 115.757 32.2728 115.453C32.4794 115.145 32.6241 114.792 32.7067 114.394H34.1042C33.999 114.983 33.8074 115.511 33.5294 115.977C33.2514 116.443 32.9058 116.839 32.4926 117.166C32.0794 117.489 31.6154 117.735 31.1008 117.904C30.5899 118.073 30.0433 118.158 29.461 118.158C28.4768 118.158 27.6015 117.917 26.8352 117.437C26.0688 116.956 25.4659 116.272 25.0264 115.385C24.5869 114.499 24.3671 113.447 24.3671 112.23C24.3671 111.013 24.5869 109.961 25.0264 109.074C25.4659 108.188 26.0688 107.504 26.8352 107.023C27.6015 106.542 28.4768 106.302 29.461 106.302C30.0433 106.302 30.5899 106.387 31.1008 106.556C31.6154 106.725 32.0794 106.973 32.4926 107.299C32.9058 107.622 33.2514 108.017 33.5294 108.483C33.8074 108.945 33.999 109.473 34.1042 110.066ZM36.8356 118H35.3706L39.608 106.46H41.0505L45.2879 118H43.8229L40.3743 108.285H40.2842L36.8356 118ZM37.3766 113.492H43.2819V114.732H37.3766V113.492ZM56.2365 106.46V118H54.8841L48.5956 108.939H48.4829V118H47.0855V106.46H48.4378L54.7489 115.543H54.8616V106.46H56.2365ZM63.4956 106.46H65.1635L69.0854 116.039H69.2206L73.1425 106.46H74.8104V118H73.5031V109.232H73.3904L69.7841 118H68.5219L64.9156 109.232H64.8029V118H63.4956V106.46ZM77.6123 118V106.46H84.577V107.699H79.0098V111.599H84.2164V112.838H79.0098V116.76H84.6672V118H77.6123Z" fill="white"/>
</svg>
