<svg width="151" height="86" viewBox="0 0 151 86" fill="none" xmlns="http://www.w3.org/2000/svg">
<g clip-path="url(#clip0_432_2486)">
<path d="M72.4226 32.7882H68.5053V36.7055H72.4226V32.7882Z" fill="#E79312"/>
<path d="M68.5053 36.7056H64.588V40.6229H68.5053V36.7056Z" fill="#E79312"/>
<path d="M72.4226 40.6229H68.5053V44.5402H72.4226V40.6229Z" fill="#E79312"/>
<path d="M72.4226 48.4575H68.5053V52.3748H72.4226V48.4575Z" fill="#E79312"/>
<path d="M68.5053 32.7882H64.588V36.7055H68.5053V32.7882Z" fill="#E79312"/>
<path d="M66.543 19.0813H62.6257V22.9986H66.543V19.0813Z" fill="#E79312"/>
<path d="M68.5053 44.5402H64.588V48.4575H68.5053V44.5402Z" fill="#E79312"/>
<path d="M68.5053 48.4575H64.588V52.3748H68.5053V48.4575Z" fill="#E79312"/>
<path d="M64.588 36.7056H60.6707V40.6229H64.588V36.7056Z" fill="#E79312"/>
<path d="M60.6707 32.7882H56.7534V36.7055H60.6707V32.7882Z" fill="#E79312"/>
<path d="M64.588 40.6229H60.6707V44.5402H64.588V40.6229Z" fill="#E79312"/>
<path d="M64.588 48.4575H60.6707V52.3748H64.588V48.4575Z" fill="#E79312"/>
<path d="M72.4153 24.9609V13.209H56.7534V28.8709H72.4153V24.9536V24.9609ZM64.588 24.9609H60.6707V17.1263H68.5053V24.9609H64.588Z" fill="#E79312"/>
<path d="M60.6707 40.6229H56.7534V44.5402H60.6707V40.6229Z" fill="#E79312"/>
<path d="M60.6707 44.5402H56.7534V48.4575H60.6707V44.5402Z" fill="#E79312"/>
<path d="M72.4153 68.0367V56.2848H56.7534V71.9467H60.6707H64.588H72.4226V68.0294L72.4153 68.0367ZM64.588 68.0367H60.6707V60.2021H68.5053V68.0367H64.588Z" fill="#E79312"/>
<path d="M66.543 62.1644H62.6257V66.0817H66.543V62.1644Z" fill="#E79312"/>
<path d="M56.7534 32.7882H52.8361V36.7055H56.7534V32.7882Z" fill="#E79312"/>
<path d="M56.7534 48.4575H52.8361V52.3748H56.7534V48.4575Z" fill="#E79312"/>
<path d="M52.8361 13.209H48.9188V17.1263H52.8361V13.209Z" fill="#E79312"/>
<path d="M52.8361 17.1263H48.9188V21.0436H52.8361V17.1263Z" fill="#E79312"/>
<path d="M52.8361 21.0436H48.9188V24.9609H52.8361V21.0436Z" fill="#E79312"/>
<path d="M52.8361 28.8783H48.9188V32.7956H52.8361V28.8783Z" fill="#E79312"/>
<path d="M52.8361 40.6229H48.9188V44.5402H52.8361V40.6229Z" fill="#E79312"/>
<path d="M56.7534 36.7056H52.8361V40.6229H56.7534V36.7056Z" fill="#E79312"/>
<path d="M52.8361 44.5402H48.9188V48.4575H52.8361V44.5402Z" fill="#E79312"/>
<path d="M52.8361 52.3748H48.9188V56.2921H52.8361V52.3748Z" fill="#E79312"/>
<path d="M52.8361 56.2848H48.9188V60.2021H52.8361V56.2848Z" fill="#E79312"/>
<path d="M52.8361 68.0367H48.9188V71.954H52.8361V68.0367Z" fill="#E79312"/>
<path d="M48.9261 17.1263H45.0088V21.0436H48.9261V17.1263Z" fill="#E79312"/>
<path d="M48.9261 24.961H45.0088V28.8783H48.9261V24.961Z" fill="#E79312"/>
<path d="M48.9261 28.8783H45.0088V32.7956H48.9261V28.8783Z" fill="#E79312"/>
<path d="M48.9261 32.7882H45.0088V36.7055H48.9261V32.7882Z" fill="#E79312"/>
<path d="M48.9261 40.6229H45.0088V44.5402H48.9261V40.6229Z" fill="#E79312"/>
<path d="M48.9261 48.4575H45.0088V52.3748H48.9261V48.4575Z" fill="#E79312"/>
<path d="M52.8361 60.2021H48.9188V64.1194H52.8361V60.2021Z" fill="#E79312"/>
<path d="M45.0088 13.209H41.0915V17.1263H45.0088V13.209Z" fill="#E79312"/>
<path d="M45.0088 17.1263H41.0915V21.0436H45.0088V17.1263Z" fill="#E79312"/>
<path d="M45.0088 21.0436H41.0915V24.9609H45.0088V21.0436Z" fill="#E79312"/>
<path d="M45.0088 32.7882H41.0915V36.7055H45.0088V32.7882Z" fill="#E79312"/>
<path d="M45.0088 36.7056H41.0915V40.6229H45.0088V36.7056Z" fill="#E79312"/>
<path d="M45.0088 44.5402H41.0915V48.4575H45.0088V44.5402Z" fill="#E79312"/>
<path d="M45.0088 48.4575H41.0915V52.3748H45.0088V48.4575Z" fill="#E79312"/>
<path d="M45.0088 52.3748H41.0915V56.2921H45.0088V52.3748Z" fill="#E79312"/>
<path d="M45.0088 68.0367H41.0915V71.954H45.0088V68.0367Z" fill="#E79312"/>
<path d="M41.0915 13.209H37.1742V17.1263H41.0915V13.209Z" fill="#E79312"/>
<path d="M41.0915 21.0436H37.1742V24.9609H41.0915V21.0436Z" fill="#E79312"/>
<path d="M41.0915 24.961H37.1742V28.8783H41.0915V24.961Z" fill="#E79312"/>
<path d="M41.0915 40.6229H37.1742V44.5402H41.0915V40.6229Z" fill="#E79312"/>
<path d="M37.1742 36.7056H33.2568V40.6229H37.1742V36.7056Z" fill="#E79312"/>
<path d="M41.0915 44.5402H37.1742V48.4575H41.0915V44.5402Z" fill="#E79312"/>
<path d="M41.0915 56.2848H37.1742V60.2021H41.0915V56.2848Z" fill="#E79312"/>
<path d="M41.0915 60.2021H37.1742V64.1194H41.0915V60.2021Z" fill="#E79312"/>
<path d="M41.0915 64.1194H37.1742V68.0367H41.0915V64.1194Z" fill="#E79312"/>
<path d="M45.0088 60.2021H41.0915V64.1194H45.0088V60.2021Z" fill="#E79312"/>
<path d="M48.9261 56.2848H45.0088V60.2021H48.9261V56.2848Z" fill="#E79312"/>
<path d="M41.0915 68.0367H37.1742V71.954H41.0915V68.0367Z" fill="#E79312"/>
<path d="M37.1742 17.1263H33.2568V21.0436H37.1742V17.1263Z" fill="#E79312"/>
<path d="M37.1742 21.0436H33.2568V24.9609H37.1742V21.0436Z" fill="#E79312"/>
<path d="M37.1742 28.8783H33.2568V32.7956H37.1742V28.8783Z" fill="#E79312"/>
<path d="M41.0915 32.7882H37.1742V36.7055H41.0915V32.7882Z" fill="#E79312"/>
<path d="M37.1742 40.6229H33.2568V44.5402H37.1742V40.6229Z" fill="#E79312"/>
<path d="M37.1742 48.4575H33.2568V52.3748H37.1742V48.4575Z" fill="#E79312"/>
<path d="M37.1742 52.3748H33.2568V56.2921H37.1742V52.3748Z" fill="#E79312"/>
<path d="M37.1742 60.2021H33.2568V64.1194H37.1742V60.2021Z" fill="#E79312"/>
<path d="M33.2569 64.1194H29.3396V68.0367H33.2569V64.1194Z" fill="#E79312"/>
<path d="M33.2569 32.7882H29.3396V36.7055H33.2569V32.7882Z" fill="#E79312"/>
<path d="M33.2569 52.3748H29.3396V56.2921H33.2569V52.3748Z" fill="#E79312"/>
<path d="M33.2569 56.2848H29.3396V60.2021H33.2569V56.2848Z" fill="#E79312"/>
<path d="M33.2569 68.0367H29.3396V71.954H33.2569V68.0367Z" fill="#E79312"/>
<path d="M29.3395 36.7056H25.4222V40.6229H29.3395V36.7056Z" fill="#E79312"/>
<path d="M29.3395 32.7882H25.4222V36.7055H29.3395V32.7882Z" fill="#E79312"/>
<path d="M29.3395 40.6229H25.4222V44.5402H29.3395V40.6229Z" fill="#E79312"/>
<path d="M29.3395 48.4575H25.4222V52.3748H29.3395V48.4575Z" fill="#E79312"/>
<path d="M29.3395 52.3748H25.4222V56.2921H29.3395V52.3748Z" fill="#E79312"/>
<path d="M29.3395 60.2021H25.4222V64.1194H29.3395V60.2021Z" fill="#E79312"/>
<path d="M25.4222 40.6229H21.5049V44.5402H25.4222V40.6229Z" fill="#E79312"/>
<path d="M25.4222 52.3748H21.5049V56.2921H25.4222V52.3748Z" fill="#E79312"/>
<path d="M25.4222 56.2848H21.5049V60.2021H25.4222V56.2848Z" fill="#E79312"/>
<path d="M25.4222 60.2021H21.5049V64.1194H25.4222V60.2021Z" fill="#E79312"/>
<path d="M25.4222 68.0367H21.5049V71.954H25.4222V68.0367Z" fill="#E79312"/>
<path d="M21.5122 32.7882H17.5949V36.7055H21.5122V32.7882Z" fill="#E79312"/>
<path d="M21.5122 36.7056H17.5949V40.6229H21.5122V36.7056Z" fill="#E79312"/>
<path d="M21.5122 44.5402H17.5949V48.4575H21.5122V44.5402Z" fill="#E79312"/>
<path d="M21.5122 48.4575H17.5949V52.3748H21.5122V48.4575Z" fill="#E79312"/>
<path d="M21.5122 56.2848H17.5949V60.2021H21.5122V56.2848Z" fill="#E79312"/>
<path d="M17.5949 52.3748H13.6776V56.2921H17.5949V52.3748Z" fill="#E79312"/>
<path d="M21.5122 64.1194H17.5949V68.0367H21.5122V64.1194Z" fill="#E79312"/>
<path d="M23.4672 19.0813H19.5499V22.9986H23.4672V19.0813Z" fill="#E79312"/>
<path d="M29.3395 24.961V13.209H13.6776V24.961V28.8783H29.3395V24.961ZM21.5049 24.961H17.5876V17.1263H25.4222V24.961H21.5049Z" fill="#E79312"/>
<path d="M17.5949 32.7882H13.6776V36.7055H17.5949V32.7882Z" fill="#E79312"/>
<path d="M17.5949 40.6229H13.6776V44.5402H17.5949V40.6229Z" fill="#E79312"/>
<path d="M17.5949 48.4575H13.6776V52.3748H17.5949V48.4575Z" fill="#E79312"/>
<path d="M17.5949 60.2021H13.6776V64.1194H17.5949V60.2021Z" fill="#E79312"/>
<path d="M17.5949 64.1194H13.6776V68.0367H17.5949V64.1194Z" fill="#E79312"/>
<path d="M17.5949 68.0367H13.6776V71.954H17.5949V68.0367Z" fill="#E79312"/>
<path d="M71.6318 1.46441C78.2803 1.46441 83.6986 6.87543 83.6986 13.5312V29.8374C83.6986 30.3573 83.9769 30.8406 84.4308 31.1042L97.4934 38.6459C98.8992 39.4586 99.7706 40.967 99.7706 42.5852C99.7706 44.2034 98.8992 45.719 97.4934 46.5244L84.4308 54.0662C83.9769 54.3298 83.6986 54.813 83.6986 55.3329V71.6392C83.6986 78.2876 78.2876 83.7059 71.6318 83.7059H13.5312C6.88275 83.7059 1.46441 78.2949 1.46441 71.6392V13.5312C1.46441 6.87543 6.87543 1.46441 13.5312 1.46441H71.6392M71.6318 0H13.5312C6.07 0 0 6.07 0 13.5312V71.6392C0 79.1003 6.07 85.1703 13.5312 85.1703H71.6392C79.1004 85.1703 85.1704 79.1003 85.1704 71.6392V55.3329L98.2329 47.7912C100.085 46.7221 101.242 44.7232 101.242 42.5852C101.242 40.4471 100.093 38.4482 98.2329 37.3792L85.1704 29.8374V13.5312C85.1704 6.07 79.1004 0 71.6392 0L71.6318 0Z" fill="#E79312"/>
<path d="M71.6318 7.32207C75.0513 7.32207 77.841 10.1045 77.841 13.5312V31.9462C77.841 33.2569 78.5366 34.465 79.6715 35.1167L87.8283 39.8248L92.6023 42.5779L87.8283 45.331L79.6715 50.039C78.5366 50.6907 77.841 51.8988 77.841 53.2095V71.6245C77.841 75.0439 75.0586 77.8336 71.6318 77.8336H13.5312C10.1118 77.8336 7.32207 75.0512 7.32207 71.6245V13.5312C7.32207 10.1118 10.1045 7.32207 13.5312 7.32207H71.6392M71.6318 3.66103H13.5312C8.08357 3.66103 3.66103 8.07624 3.66103 13.5312V71.6392C3.66103 77.0868 8.07624 81.5093 13.5312 81.5093H71.6392C77.0868 81.5093 81.5093 77.0941 81.5093 71.6392V53.2241L89.6661 48.5161L96.4024 44.628C97.9694 43.7201 97.9694 41.4576 96.4024 40.5496L89.6661 36.6616L81.5093 31.9535V13.5385C81.5093 8.09089 77.0941 3.66836 71.6392 3.66836L71.6318 3.66103Z" fill="#E79312"/>
<path d="M105.76 14.8711C106.573 13.9705 107.774 13.5165 109.355 13.5165C110.937 13.5165 112.138 13.9705 112.95 14.8711C113.763 15.7717 114.166 17.0677 114.166 18.7518V19.4035H111.076V18.5395C111.076 17.8292 110.937 17.3094 110.658 16.9799C110.38 16.6504 109.978 16.4893 109.443 16.4893C108.909 16.4893 108.498 16.6504 108.228 16.9799C107.957 17.3094 107.81 17.8292 107.81 18.5395C107.81 19.4108 108.045 20.1723 108.506 20.824C108.974 21.4756 109.67 22.2225 110.6 23.0499C111.376 23.7601 111.998 24.3898 112.474 24.939C112.95 25.4881 113.353 26.1398 113.69 26.9159C114.027 27.6848 114.195 28.5707 114.195 29.5592C114.195 31.2433 113.778 32.5393 112.95 33.4399C112.116 34.3405 110.907 34.7945 109.326 34.7945C107.744 34.7945 106.529 34.3478 105.701 33.4399C104.867 32.5393 104.449 31.2433 104.449 29.5592V28.2778H107.539V29.7642C107.539 31.1115 108.103 31.7851 109.231 31.7851C110.358 31.7851 110.922 31.1115 110.922 29.7642C110.922 28.8929 110.688 28.1314 110.226 27.4797C109.758 26.8281 109.062 26.0812 108.132 25.2538C107.356 24.5436 106.734 23.9139 106.258 23.3647C105.782 22.8156 105.379 22.1639 105.042 21.3878C104.706 20.6116 104.537 19.733 104.537 18.7445C104.537 17.0604 104.94 15.7644 105.753 14.8638L105.76 14.8711Z" fill="#E79312"/>
<path d="M125.552 29.5665C125.552 31.2506 125.134 32.5466 124.3 33.4472C123.465 34.3478 122.257 34.8018 120.675 34.8018C119.094 34.8018 117.878 34.3552 117.051 33.4472C116.216 32.5466 115.799 31.2506 115.799 29.5665V18.7518C115.799 17.0677 116.216 15.7717 117.051 14.8711C117.885 13.9705 119.094 13.5165 120.675 13.5165C122.257 13.5165 123.465 13.9705 124.3 14.8711C125.134 15.7717 125.552 17.0677 125.552 18.7518V20.7727H122.462V18.5468C122.462 17.1776 121.898 16.4966 120.77 16.4966C119.643 16.4966 119.079 17.1776 119.079 18.5468V29.7789C119.079 31.1261 119.643 31.7998 120.77 31.7998C121.898 31.7998 122.462 31.1261 122.462 29.7789V26.8061H125.552V29.5738V29.5665Z" fill="#E79312"/>
<path d="M134.821 34.5602L134.258 30.7893H130.245L129.681 34.5602H126.679L130.011 13.7582H134.799L138.131 34.5602H134.829H134.821ZM133.811 27.963L132.237 17.4412L130.662 27.963H133.811Z" fill="#E79312"/>
<path d="M142.546 34.5602H139.603V13.7582H143.703L147.064 26.213V13.7582H149.978V34.5602H146.617L142.546 19.4914V34.5602Z" fill="#E79312"/>
<path d="M118.559 37.5183H125.405V68.8421H120.756V46.378L117.358 68.8421H112.701L109.033 46.6929V68.8421H104.735V37.5183H111.581L115.205 59.7554L118.559 37.5183Z" fill="#E79312"/>
<path d="M140.664 50.72V55.1938H133.906V64.3683H142.407V68.8421H128.986V37.5183H142.407V41.9921H133.906V50.72H140.664Z" fill="#E79312"/>
<path d="M145.453 50.5809V37.5183H150.373V50.5809L149.744 61.9008H146.075L145.446 50.5809H145.453ZM150.286 68.8348H145.541V64.0901H150.286V68.8348Z" fill="#E79312"/>
</g>
<defs>
<clipPath id="clip0_432_2486">
<rect width="150.373" height="85.163" fill="white"/>
</clipPath>
</defs>
</svg>
