<svg width="325" height="122" viewBox="0 0 325 122" fill="none" xmlns="http://www.w3.org/2000/svg">
<g clip-path="url(#clip0_432_2370)">
<path d="M274.475 22.1833C280.969 22.1833 286.242 27.4561 286.242 33.9502V91.7791C286.242 98.2732 280.969 103.546 274.475 103.546H43.5477C21.1201 103.546 2.87348 85.2994 2.87348 62.8718C2.87348 40.4443 21.1201 22.1833 43.5477 22.1833H274.461M274.475 19.3098H43.5477C19.5397 19.3098 0 38.8495 0 62.8575C0 86.8654 19.5397 106.405 43.5477 106.405H274.461C282.535 106.405 289.101 99.8392 289.101 91.7647V33.9502C289.101 25.8757 282.535 19.3098 274.461 19.3098H274.475Z" fill="#F5382C"/>
<path d="M43.5476 100.658H274.461C279.374 100.658 283.354 96.6784 283.354 91.7647V33.9502C283.354 29.0366 279.374 25.0568 274.461 25.0568H43.5476C22.6718 25.0568 5.74695 41.9816 5.74695 62.8575C5.74695 83.7333 22.6718 100.658 43.5476 100.658Z" fill="#F5382C"/>
<path d="M264.03 118.546C232.134 118.546 206.187 92.598 206.187 60.7023C206.187 28.8067 232.149 2.87348 264.03 2.87348C295.911 2.87348 321.873 28.821 321.873 60.7167C321.873 92.6124 295.926 118.56 264.03 118.56V118.546Z" fill="white"/>
<path d="M264.03 5.74697C294.331 5.74697 319 30.4015 319 60.7167C319 91.032 294.345 115.686 264.03 115.686C233.715 115.686 209.06 91.032 209.06 60.7167C209.06 30.4015 233.729 5.74697 264.03 5.74697ZM264.03 0C230.497 0 203.313 27.1832 203.313 60.7167C203.313 94.2503 230.497 121.433 264.03 121.433C297.564 121.433 324.747 94.2503 324.747 60.7167C324.747 27.1832 297.564 0 264.03 0Z" fill="#F5382C"/>
<path d="M228.686 67.7712V72.4837H233.399V67.7712H228.686Z" fill="#F5382C"/>
<path d="M233.399 63.0586V67.7711H238.111V63.0586H233.399Z" fill="#F5382C"/>
<path d="M228.686 58.3461V63.0586H233.399V58.3461H228.686Z" fill="#F5382C"/>
<path d="M228.672 48.9211V53.6336H233.384V48.9211H228.672Z" fill="#F5382C"/>
<path d="M233.399 67.7855V72.498H238.111V67.7855H233.399Z" fill="#F5382C"/>
<path d="M235.755 84.2793V88.9918H240.468V84.2793H235.755Z" fill="#F5382C"/>
<path d="M233.384 53.6336V58.3461H238.097V53.6336H233.384Z" fill="#F5382C"/>
<path d="M233.384 48.9211V53.6336H238.097V48.9211H233.384Z" fill="#F5382C"/>
<path d="M238.111 63.073V67.7855H242.824V63.073H238.111Z" fill="#F5382C"/>
<path d="M242.824 67.7855V72.498H247.536V67.7855H242.824Z" fill="#F5382C"/>
<path d="M238.111 58.3461V63.0586H242.824V58.3461H238.111Z" fill="#F5382C"/>
<path d="M238.097 48.9211V53.6336H242.809V48.9211H238.097Z" fill="#F5382C"/>
<path d="M228.686 81.923V96.0606H247.536V77.2105H228.686V81.923ZM238.111 81.923H242.824V91.3481H233.399V81.923H238.111Z" fill="#F5382C"/>
<path d="M242.824 58.3605V63.073H247.536V58.3605H242.824Z" fill="#F5382C"/>
<path d="M242.809 53.6336V58.3461H247.522V53.6336H242.809Z" fill="#F5382C"/>
<path d="M228.686 30.071V44.2085H247.536V25.3585H228.686V30.071ZM238.111 30.071H242.824V39.496H233.399V30.071H238.111Z" fill="#F5382C"/>
<path d="M240.468 32.4273H235.755V37.1398H240.468V32.4273Z" fill="#F5382C"/>
<path d="M247.536 67.7855V72.498H252.249V67.7855H247.536Z" fill="#F5382C"/>
<path d="M247.536 48.921V53.6336H252.249V48.921H247.536Z" fill="#F5382C"/>
<path d="M252.234 91.3481V96.0606H256.947V91.3481H252.234Z" fill="#F5382C"/>
<path d="M252.249 86.6355V91.348H256.961V86.6355H252.249Z" fill="#F5382C"/>
<path d="M252.249 81.923V86.6355H256.961V81.923H252.249Z" fill="#F5382C"/>
<path d="M252.249 72.498V77.2105H256.961V72.498H252.249Z" fill="#F5382C"/>
<path d="M252.263 58.3604V63.073H256.976V58.3604H252.263Z" fill="#F5382C"/>
<path d="M247.536 63.073V67.7855H252.249V63.073H247.536Z" fill="#F5382C"/>
<path d="M252.249 53.648V58.3605H256.961V53.648H252.249Z" fill="#F5382C"/>
<path d="M252.249 44.2085V48.921H256.961V44.2085H252.249Z" fill="#F5382C"/>
<path d="M252.249 39.496V44.2085H256.961V39.496H252.249Z" fill="#F5382C"/>
<path d="M252.249 25.3585V30.071H256.961V25.3585H252.249Z" fill="#F5382C"/>
<path d="M256.961 86.6355V91.348H261.674V86.6355H256.961Z" fill="#F5382C"/>
<path d="M256.961 77.2105V81.923H261.674V77.2105H256.961Z" fill="#F5382C"/>
<path d="M256.961 72.498V77.2105H261.674V72.498H256.961Z" fill="#F5382C"/>
<path d="M256.961 67.7855V72.498H261.674V67.7855H256.961Z" fill="#F5382C"/>
<path d="M256.976 58.3604V63.073H261.688V58.3604H256.976Z" fill="#F5382C"/>
<path d="M256.961 48.9354V53.6479H261.674V48.9354H256.961Z" fill="#F5382C"/>
<path d="M252.249 34.7835V39.496H256.961V34.7835H252.249Z" fill="#F5382C"/>
<path d="M261.674 91.3481V96.0606H266.386V91.3481H261.674Z" fill="#F5382C"/>
<path d="M261.674 86.6355V91.348H266.386V86.6355H261.674Z" fill="#F5382C"/>
<path d="M261.674 81.923V86.6355H266.386V81.923H261.674Z" fill="#F5382C"/>
<path d="M261.688 67.7855V72.498H266.401V67.7855H261.688Z" fill="#F5382C"/>
<path d="M261.688 63.073V67.7855H266.401V63.073H261.688Z" fill="#F5382C"/>
<path d="M261.674 53.648V58.3605H266.386V53.648H261.674Z" fill="#F5382C"/>
<path d="M261.674 48.9354V53.6479H266.386V48.9354H261.674Z" fill="#F5382C"/>
<path d="M261.674 44.2229V48.9354H266.386V44.2229H261.674Z" fill="#F5382C"/>
<path d="M261.674 25.3585V30.071H266.386V25.3585H261.674Z" fill="#F5382C"/>
<path d="M266.386 91.3624V96.0749H271.099V91.3624H266.386Z" fill="#F5382C"/>
<path d="M266.386 81.923V86.6355H271.099V81.923H266.386Z" fill="#F5382C"/>
<path d="M266.386 77.2105V81.923H271.099V77.2105H266.386Z" fill="#F5382C"/>
<path d="M266.401 58.3604V63.073H271.113V58.3604H266.401Z" fill="#F5382C"/>
<path d="M271.113 63.073V67.7855H275.826V63.073H271.113Z" fill="#F5382C"/>
<path d="M266.386 53.648V58.3605H271.099V53.648H266.386Z" fill="#F5382C"/>
<path d="M266.386 39.5104V44.2229H271.099V39.5104H266.386Z" fill="#F5382C"/>
<path d="M266.386 34.7979V39.5104H271.099V34.7979H266.386Z" fill="#F5382C"/>
<path d="M266.386 30.071V34.7835H271.099V30.071H266.386Z" fill="#F5382C"/>
<path d="M261.674 34.7835V39.496H266.386V34.7835H261.674Z" fill="#F5382C"/>
<path d="M256.961 39.496V44.2085H261.674V39.496H256.961Z" fill="#F5382C"/>
<path d="M266.386 25.3585V30.071H271.099V25.3585H266.386Z" fill="#F5382C"/>
<path d="M271.099 86.6499V91.3624H275.811V86.6499H271.099Z" fill="#F5382C"/>
<path d="M271.099 81.923V86.6356H275.811V81.923H271.099Z" fill="#F5382C"/>
<path d="M271.113 72.498V77.2105H275.826V72.498H271.113Z" fill="#F5382C"/>
<path d="M266.401 67.7855V72.498H271.113V67.7855H266.401Z" fill="#F5382C"/>
<path d="M271.113 58.3604V63.073H275.826V58.3604H271.113Z" fill="#F5382C"/>
<path d="M271.099 48.9354V53.6479H275.811V48.9354H271.099Z" fill="#F5382C"/>
<path d="M271.099 44.2229V48.9354H275.811V44.2229H271.099Z" fill="#F5382C"/>
<path d="M271.099 34.7979V39.5104H275.811V34.7979H271.099Z" fill="#F5382C"/>
<path d="M275.811 30.0854V34.7979H280.524V30.0854H275.811Z" fill="#F5382C"/>
<path d="M275.826 67.7855V72.498H280.538V67.7855H275.826Z" fill="#F5382C"/>
<path d="M275.811 44.2229V48.9354H280.524V44.2229H275.811Z" fill="#F5382C"/>
<path d="M275.811 39.5104V44.2229H280.524V39.5104H275.811Z" fill="#F5382C"/>
<path d="M275.826 25.3729V30.0854H280.538V25.3729H275.826Z" fill="#F5382C"/>
<path d="M280.538 63.0586V67.7711H285.251V63.0586H280.538Z" fill="#F5382C"/>
<path d="M280.538 67.7712V72.4837H285.251V67.7712H280.538Z" fill="#F5382C"/>
<path d="M280.538 58.3461V63.0586H285.251V58.3461H280.538Z" fill="#F5382C"/>
<path d="M280.524 48.9211V53.6336H285.236V48.9211H280.524Z" fill="#F5382C"/>
<path d="M280.524 44.2086V48.9211H285.236V44.2086H280.524Z" fill="#F5382C"/>
<path d="M280.524 34.7835V39.4961H285.236V34.7835H280.524Z" fill="#F5382C"/>
<path d="M285.251 58.3461V63.0586H289.963V58.3461H285.251Z" fill="#F5382C"/>
<path d="M285.236 44.2085V48.9211H289.949V44.2085H285.236Z" fill="#F5382C"/>
<path d="M285.236 39.496V44.2086H289.949V39.496H285.236Z" fill="#F5382C"/>
<path d="M285.251 34.7835V39.4961H289.963V34.7835H285.251Z" fill="#F5382C"/>
<path d="M285.251 25.3585V30.071H289.963V25.3585H285.251Z" fill="#F5382C"/>
<path d="M289.963 67.7855V72.498H294.676V67.7855H289.963Z" fill="#F5382C"/>
<path d="M289.963 63.0586V67.7711H294.676V63.0586H289.963Z" fill="#F5382C"/>
<path d="M289.949 53.6336V58.3461H294.661V53.6336H289.949Z" fill="#F5382C"/>
<path d="M289.949 48.9211V53.6336H294.661V48.9211H289.949Z" fill="#F5382C"/>
<path d="M289.963 39.496V44.2085H294.676V39.496H289.963Z" fill="#F5382C"/>
<path d="M294.676 44.2086V48.9211H299.388V44.2086H294.676Z" fill="#F5382C"/>
<path d="M289.963 30.071V34.7835H294.676V30.071H289.963Z" fill="#F5382C"/>
<path d="M292.32 84.2793H287.607V88.9918H292.32V84.2793Z" fill="#F5382C"/>
<path d="M280.538 81.923V96.0606H299.388V77.2105H280.538V81.923ZM289.963 81.923H294.676V91.3481H285.251V81.923H289.963Z" fill="#F5382C"/>
<path d="M294.676 67.7855V72.498H299.388V67.7855H294.676Z" fill="#F5382C"/>
<path d="M294.676 58.3461V63.0586H299.388V58.3461H294.676Z" fill="#F5382C"/>
<path d="M294.661 48.9211V53.6336H299.374V48.9211H294.661Z" fill="#F5382C"/>
<path d="M294.676 34.7835V39.496H299.388V34.7835H294.676Z" fill="#F5382C"/>
<path d="M294.676 30.071V34.7835H299.388V30.071H294.676Z" fill="#F5382C"/>
<path d="M294.676 25.3585V30.071H299.388V25.3585H294.676Z" fill="#F5382C"/>
<path d="M35.1427 43.7919C36.7231 42.0391 39.065 41.1483 42.154 41.1483C45.243 41.1483 47.5849 42.0247 49.1653 43.7919C50.7457 45.5447 51.5359 48.0734 51.5359 51.3492V52.6279H45.5016V50.9469C45.5016 49.5532 45.2286 48.5475 44.6827 47.901C44.1367 47.2688 43.3465 46.9384 42.312 46.9384C41.2776 46.9384 40.473 47.2544 39.9414 47.901C39.3955 48.5331 39.1368 49.5532 39.1368 50.9469C39.1368 52.6422 39.5966 54.1364 40.5018 55.4151C41.4069 56.6938 42.7718 58.145 44.5821 59.7685C46.0907 61.1621 47.3119 62.3833 48.2314 63.4465C49.1653 64.5097 49.9555 65.7884 50.6021 67.297C51.263 68.8056 51.5934 70.5297 51.5934 72.4549C51.5934 75.745 50.7888 78.2593 49.1653 80.0122C47.5418 81.765 45.1855 82.6414 42.0965 82.6414C39.0075 82.6414 36.6513 81.765 35.0278 80.0122C33.4042 78.2593 32.5997 75.7307 32.5997 72.4549V69.9693H38.634V72.8716C38.634 75.5008 39.7403 76.8082 41.9385 76.8082C44.1367 76.8082 45.243 75.5008 45.243 72.8716C45.243 71.1762 44.7832 69.682 43.8781 68.4033C42.9729 67.1246 41.608 65.6735 39.7977 64.05C38.2892 62.6563 37.0679 61.4351 36.1484 60.3719C35.2289 59.3087 34.4243 58.03 33.7778 56.5214C33.1313 55.0129 32.7864 53.2888 32.7864 51.3635C32.7864 48.0734 33.5767 45.5591 35.1571 43.8063L35.1427 43.7919Z" fill="white"/>
<path d="M73.7336 72.4549C73.7336 75.745 72.929 78.2593 71.3055 80.0122C69.682 81.765 67.3257 82.6414 64.2367 82.6414C61.1477 82.6414 58.7915 81.765 57.168 80.0122C55.5444 78.2593 54.7399 75.7307 54.7399 72.4549V51.3635C54.7399 48.0734 55.5444 45.5591 57.168 43.8063C58.7915 42.0534 61.1477 41.1627 64.2367 41.1627C67.3257 41.1627 69.682 42.0391 71.3055 43.8063C72.929 45.5591 73.7336 48.0877 73.7336 51.3635V55.3002H67.6993V50.9469C67.6993 48.2745 66.593 46.9527 64.3948 46.9527C62.1966 46.9527 61.0903 48.2889 61.0903 50.9469V72.8572C61.0903 75.4864 62.1966 76.7939 64.3948 76.7939C66.593 76.7939 67.6993 75.4864 67.6993 72.8572V67.0671H73.7336V72.4549Z" fill="white"/>
<path d="M91.8222 82.1816L90.7159 74.8255H82.8857L81.7794 82.1816H75.9318L82.4259 41.608H91.7504L98.2444 82.1816H91.8078H91.8222ZM89.8539 69.3228L86.7792 48.8061L83.7046 69.3228H89.8539Z" fill="white"/>
<path d="M106.894 82.1816H101.161V41.608H109.164L115.715 65.889V41.608H121.39V82.1816H114.839L106.894 52.8003V82.1816Z" fill="white"/>
<path d="M152.798 41.6224H161.662V82.196H155.628V53.102L151.217 82.196H145.183L140.427 53.5043V82.196H134.867V41.6224H143.732L148.43 70.4291L152.783 41.6224H152.798Z" fill="white"/>
<path d="M181.417 58.7196V64.5097H172.668V76.3916H183.687V82.1816H166.303V41.608H183.687V47.3981H172.668V58.7053H181.417V58.7196Z" fill="white"/>
<path d="M187.624 58.5473V41.6224H194.003V58.5473L193.199 73.2164H188.443L187.624 58.5473ZM193.888 82.1817H187.739V76.0324H193.888V82.1817Z" fill="white"/>
</g>
<defs>
<clipPath id="clip0_432_2370">
<rect width="324.747" height="121.419" fill="white"/>
</clipPath>
</defs>
</svg>
