<svg width="325" height="126" viewBox="0 0 325 126" fill="none" xmlns="http://www.w3.org/2000/svg">
<g clip-path="url(#clip0_432_2142)">
<path d="M311.666 2.96275C317.251 2.96275 321.784 7.51057 321.784 13.0953V112.851C321.784 118.436 317.236 122.969 311.666 122.969H211.911C206.326 122.969 201.793 118.421 201.793 112.851V13.0953C201.793 7.51057 206.341 2.96275 211.911 2.96275H311.666ZM311.666 0H211.911C204.696 0 198.83 5.86624 198.83 13.0953V112.851C198.83 120.065 204.696 125.932 211.911 125.932H311.666C318.881 125.932 324.747 120.065 324.747 112.851V13.0953C324.747 5.88106 318.881 0 311.666 0Z" fill="#F5382C"/>
<path d="M274.558 26.9462H7.15506C4.83972 26.9462 2.96277 28.8232 2.96277 31.1385V94.7931C2.96277 97.1085 4.83972 98.9854 7.15506 98.9854H274.558C276.873 98.9854 278.75 97.1085 278.75 94.7931V31.1385C278.75 28.8232 276.873 26.9462 274.558 26.9462Z" fill="white"/>
<path d="M274.558 29.9089C275.239 29.9089 275.787 30.4571 275.787 31.1385V94.7783C275.787 95.4598 275.239 96.0079 274.558 96.0079H7.15504C6.4736 96.0079 5.9255 95.4598 5.9255 94.7783V31.1533C5.9255 30.4719 6.4736 29.9238 7.15504 29.9238H274.543M274.558 23.9835H7.15504C3.19977 23.9835 0 27.1832 0 31.1385V94.7783C0 98.7336 3.19977 101.933 7.15504 101.933H274.543C278.498 101.933 281.698 98.7336 281.698 94.7783V31.1533C281.698 27.198 278.498 23.9983 274.543 23.9983L274.558 23.9835Z" fill="#F5382C"/>
<path d="M311.666 5.92549H211.896C207.944 5.92549 204.741 9.12891 204.741 13.0805V112.851C204.741 116.803 207.944 120.006 211.896 120.006H311.666C315.618 120.006 318.821 116.803 318.821 112.851V13.0805C318.821 9.12891 315.618 5.92549 311.666 5.92549Z" fill="#F5382C"/>
<path d="M222.843 70.7652V75.95H228.028V70.7652H222.843Z" fill="white"/>
<path d="M228.043 65.5804V70.7652H233.228V65.5804H228.043Z" fill="white"/>
<path d="M222.843 60.3808V65.5656H228.028V60.3808H222.843Z" fill="white"/>
<path d="M222.843 49.9815V55.1812H228.028V49.9815H222.843Z" fill="white"/>
<path d="M228.028 70.7652V75.95H233.213V70.7652H228.028Z" fill="white"/>
<path d="M230.635 88.9269V94.1117H235.82V88.9269H230.635Z" fill="white"/>
<path d="M228.028 55.196V60.3808H233.213V55.196H228.028Z" fill="white"/>
<path d="M228.028 49.9964V55.1812H233.213V49.9964H228.028Z" fill="white"/>
<path d="M233.228 65.5656V70.7504H238.412V65.5656H233.228Z" fill="white"/>
<path d="M238.412 70.7652V75.95H243.597V70.7652H238.412Z" fill="white"/>
<path d="M233.213 60.3808V65.5656H238.398V60.3808H233.213Z" fill="white"/>
<path d="M233.213 49.9963V55.1811H238.398V49.9963H233.213Z" fill="white"/>
<path d="M222.843 86.3344V101.904H243.612V81.1348H222.843V86.3196V86.3344ZM233.228 86.3344H238.412V96.7189H228.028V86.3344H233.213H233.228Z" fill="white"/>
<path d="M238.412 60.3808V65.5656H243.597V60.3808H238.412Z" fill="white"/>
<path d="M238.412 55.196V60.3808H243.597V55.196H238.412Z" fill="white"/>
<path d="M222.843 29.2127V44.7819H243.612V34.3975V29.2127V24.0131H222.843V29.2127ZM233.228 29.2127H238.412V39.5971H228.028V29.2127H233.213H233.228Z" fill="white"/>
<path d="M235.82 31.8199H230.635V37.0047H235.82V31.8199Z" fill="white"/>
<path d="M243.597 70.7504V75.95H248.782V70.7504H243.597Z" fill="white"/>
<path d="M243.597 49.9964V55.1812H248.782V49.9964H243.597Z" fill="white"/>
<path d="M248.812 96.7189V101.919H253.996V96.7189H248.812Z" fill="white"/>
<path d="M248.797 91.5341V96.7189H253.982V91.5341H248.797Z" fill="white"/>
<path d="M248.812 86.3493V91.5341H253.996V86.3493H248.812Z" fill="white"/>
<path d="M248.797 75.9648V81.1497H253.982V75.9648H248.797Z" fill="white"/>
<path d="M248.797 60.3808V65.5656H253.982V60.3808H248.797Z" fill="white"/>
<path d="M243.612 65.5656V70.7504H248.797V65.5656H243.612Z" fill="white"/>
<path d="M248.797 55.196V60.3808H253.982V55.196H248.797Z" fill="white"/>
<path d="M248.797 44.7967V49.9964H253.982V44.7967H248.797Z" fill="white"/>
<path d="M248.797 39.6119V44.7967H253.982V39.6119H248.797Z" fill="white"/>
<path d="M248.797 24.0427V29.2275H253.982V24.0427H248.797Z" fill="white"/>
<path d="M253.996 91.5341V96.7189H259.181V91.5341H253.996Z" fill="white"/>
<path d="M253.982 81.1496V86.3344H259.166V81.1496H253.982Z" fill="white"/>
<path d="M253.996 75.95V81.1348H259.181V75.95H253.996Z" fill="white"/>
<path d="M253.982 70.7504V75.95H259.166V70.7504H253.982Z" fill="white"/>
<path d="M253.982 60.3808V65.5656H259.166V60.3808H253.982Z" fill="white"/>
<path d="M253.982 49.9963V55.1811H259.166V49.9963H253.982Z" fill="white"/>
<path d="M248.797 34.4271V39.6119H253.982V34.4271H248.797Z" fill="white"/>
<path d="M259.196 96.7189V101.919H264.381V96.7189H259.196Z" fill="white"/>
<path d="M259.181 91.5341V96.7189H264.366V91.5341H259.181Z" fill="white"/>
<path d="M259.181 86.3492V91.534H264.366V86.3492H259.181Z" fill="white"/>
<path d="M259.181 70.7504V75.95H264.366V70.7504H259.181Z" fill="white"/>
<path d="M259.181 65.5804V70.7652H264.366V65.5804H259.181Z" fill="white"/>
<path d="M259.181 55.196V60.3808H264.366V55.196H259.181Z" fill="white"/>
<path d="M259.181 49.9963V55.1811H264.366V49.9963H259.181Z" fill="white"/>
<path d="M259.181 44.7967V49.9963H264.366V44.7967H259.181Z" fill="white"/>
<path d="M259.181 24.0427V29.2275H264.366V24.0427H259.181Z" fill="white"/>
<path d="M264.381 96.7041V101.904H269.566V96.7041H264.381Z" fill="white"/>
<path d="M264.381 86.3345V91.5193H269.566V86.3345H264.381Z" fill="white"/>
<path d="M264.366 81.1497V86.3345H269.551V81.1497H264.366Z" fill="white"/>
<path d="M264.366 60.3808V65.5656H269.551V60.3808H264.366Z" fill="white"/>
<path d="M269.566 65.5804V70.7652H274.75V65.5804H269.566Z" fill="white"/>
<path d="M264.381 55.1812V60.366H269.566V55.1812H264.381Z" fill="white"/>
<path d="M264.366 39.6119V44.7967H269.551V39.6119H264.366Z" fill="white"/>
<path d="M264.381 34.4123V39.5971H269.566V34.4123H264.381Z" fill="white"/>
<path d="M264.366 29.2275V34.4123H269.551V29.2275H264.366Z" fill="white"/>
<path d="M259.181 34.4271V39.6119H264.366V34.4271H259.181Z" fill="white"/>
<path d="M253.982 39.6119V44.7967H259.166V39.6119H253.982Z" fill="white"/>
<path d="M264.381 24.0279V29.2127H269.566V24.0279H264.381Z" fill="white"/>
<path d="M269.566 91.5341V96.7189H274.75V91.5341H269.566Z" fill="white"/>
<path d="M269.566 86.3493V91.5341H274.75V86.3493H269.566Z" fill="white"/>
<path d="M269.566 75.9648V81.1497H274.75V75.9648H269.566Z" fill="white"/>
<path d="M264.366 70.7504V75.95H269.551V70.7504H264.366Z" fill="white"/>
<path d="M269.566 60.3808V65.5656H274.75V60.3808H269.566Z" fill="white"/>
<path d="M269.566 49.9964V55.1812H274.75V49.9964H269.566Z" fill="white"/>
<path d="M269.566 44.7967V49.9964H274.75V44.7967H269.566Z" fill="white"/>
<path d="M269.566 34.4271V39.6119H274.75V34.4271H269.566Z" fill="white"/>
<path d="M274.75 29.2275V34.4123H279.935V29.2275H274.75Z" fill="white"/>
<path d="M274.75 70.7504V75.95H279.935V70.7504H274.75Z" fill="white"/>
<path d="M274.765 44.7819V49.9815H279.95V44.7819H274.765Z" fill="white"/>
<path d="M274.75 39.6119V44.7967H279.935V39.6119H274.75Z" fill="white"/>
<path d="M274.765 24.0279V29.2127H279.95V24.0279H274.765Z" fill="white"/>
<path d="M279.95 65.5804V70.7652H285.135V65.5804H279.95Z" fill="white"/>
<path d="M279.95 70.7504V75.95H285.135V70.7504H279.95Z" fill="white"/>
<path d="M279.95 60.3808V65.5656H285.135V60.3808H279.95Z" fill="white"/>
<path d="M279.95 49.9964V55.1812H285.135V49.9964H279.95Z" fill="white"/>
<path d="M279.95 44.7967V49.9964H285.135V44.7967H279.95Z" fill="white"/>
<path d="M279.95 34.4271V39.6119H285.135V34.4271H279.95Z" fill="white"/>
<path d="M285.135 60.3808V65.5656H290.32V60.3808H285.135Z" fill="white"/>
<path d="M285.15 44.7819V49.9815H290.335V44.7819H285.15Z" fill="white"/>
<path d="M285.135 39.6119V44.7967H290.32V39.6119H285.135Z" fill="white"/>
<path d="M285.15 34.4123V39.5971H290.335V34.4123H285.15Z" fill="white"/>
<path d="M285.15 24.0279V29.2127H290.335V24.0279H285.15Z" fill="white"/>
<path d="M290.334 70.7504V75.95H295.519V70.7504H290.334Z" fill="white"/>
<path d="M290.334 65.5804V70.7652H295.519V65.5804H290.334Z" fill="white"/>
<path d="M290.334 55.196V60.3808H295.519V55.196H290.334Z" fill="white"/>
<path d="M290.334 49.9963V55.1811H295.519V49.9963H290.334Z" fill="white"/>
<path d="M290.334 39.6119V44.7967H295.519V39.6119H290.334Z" fill="white"/>
<path d="M295.534 44.7819V49.9815H300.719V44.7819H295.534Z" fill="white"/>
<path d="M290.334 29.2275V34.4123H295.519V29.2275H290.334Z" fill="white"/>
<path d="M292.927 88.9268H287.742V94.1117H292.927V88.9268Z" fill="white"/>
<path d="M279.95 86.3344V101.904H300.719V81.1348H279.95V86.3196V86.3344ZM290.335 86.3344H295.519V96.7189H285.135V86.3344H290.32H290.335Z" fill="white"/>
<path d="M295.519 70.7504V75.95H300.704V70.7504H295.519Z" fill="white"/>
<path d="M295.519 60.3808V65.5656H300.704V60.3808H295.519Z" fill="white"/>
<path d="M295.519 49.9964V55.1812H300.704V49.9964H295.519Z" fill="white"/>
<path d="M295.534 34.4123V39.5971H300.719V34.4123H295.534Z" fill="white"/>
<path d="M295.519 29.2275V34.4123H300.704V29.2275H295.519Z" fill="white"/>
<path d="M295.534 24.0279V29.2127H300.719V24.0279H295.534Z" fill="white"/>
<path d="M22.3836 44.4708C24.0131 42.6636 26.4277 41.7451 29.6127 41.7451C32.7976 41.7451 35.2123 42.6487 36.8418 44.4708C38.4713 46.2781 39.286 48.8853 39.286 52.2629V53.5813H33.0643V51.8481C33.0643 50.4111 32.7828 49.3742 32.2199 48.7076C31.657 48.0558 30.8422 47.715 29.7756 47.715C28.709 47.715 27.8795 48.041 27.3314 48.7076C26.7684 49.3594 26.5018 50.4111 26.5018 51.8481C26.5018 53.5961 26.9758 55.1367 27.9091 56.4552C28.8424 57.7736 30.2497 59.2698 32.1162 60.9437C33.6716 62.3807 34.9308 63.6398 35.8789 64.736C36.8418 65.8323 37.6565 67.1507 38.3232 68.7061C39.0046 70.2616 39.3453 72.0392 39.3453 74.0243C39.3453 77.4166 38.5157 80.009 36.8418 81.8163C35.1678 83.6236 32.7384 84.5272 29.5534 84.5272C26.3685 84.5272 23.939 83.6236 22.2651 81.8163C20.5911 80.009 19.7615 77.4018 19.7615 74.0243V71.4615H25.9833V74.4538C25.9833 77.1648 27.124 78.5128 29.3905 78.5128C31.657 78.5128 32.7976 77.1648 32.7976 74.4538C32.7976 72.7058 32.3236 71.1652 31.3903 69.8468C30.4571 68.5284 29.0498 67.0322 27.1832 65.3582C25.6278 63.9213 24.3686 62.6621 23.4205 61.5659C22.4725 60.4697 21.6429 59.1513 20.9763 57.5958C20.3096 56.0404 19.9541 54.2627 19.9541 52.2777C19.9541 48.8853 20.7689 46.2929 22.3984 44.4857L22.3836 44.4708Z" fill="#F5382C"/>
<path d="M62.1881 74.0242C62.1881 77.4166 61.3585 80.009 59.6846 81.8163C58.0106 83.6235 55.5811 84.5272 52.3962 84.5272C49.2112 84.5272 46.7818 83.6235 45.1078 81.8163C43.4339 80.009 42.6043 77.4018 42.6043 74.0242V52.2777C42.6043 48.8853 43.4339 46.2929 45.1078 44.4856C46.7818 42.6784 49.2112 41.7599 52.3962 41.7599C55.5811 41.7599 58.0106 42.6635 59.6846 44.4856C61.3585 46.2929 62.1881 48.9001 62.1881 52.2777V56.3366H55.9663V51.8481C55.9663 49.0927 54.8256 47.7298 52.5591 47.7298C50.2926 47.7298 49.152 49.1075 49.152 51.8481V74.439C49.152 77.1499 50.2926 78.498 52.5591 78.498C54.8256 78.498 55.9663 77.1499 55.9663 74.439V68.4691H62.1881V74.0242Z" fill="#F5382C"/>
<path d="M80.8238 84.068L79.6831 76.4833H71.6096L70.469 84.068H64.4398L71.1356 42.234H80.7497L87.4455 84.068H80.8089H80.8238ZM78.7943 70.7949L75.6241 49.6408L72.454 70.7949H78.7943Z" fill="#F5382C"/>
<path d="M96.3634 84.068H90.4527V42.234H98.7039L105.459 67.2692V42.234H111.31V84.068H104.555L96.3634 53.7739V84.068Z" fill="#F5382C"/>
<path d="M143.693 42.234H152.833V84.068H146.612V54.0701L142.064 84.068H135.842L130.939 54.4849V84.068H125.206V42.234H134.346L139.19 71.9355L143.678 42.234H143.693Z" fill="#F5382C"/>
<path d="M173.217 59.8623V65.8323H164.195V78.0832H175.558V84.0532H157.633V42.2192H175.558V48.1891H164.195V59.8475H173.217V59.8623Z" fill="#F5382C"/>
<path d="M179.602 59.6846V42.234H186.179V59.6846L185.35 74.8094H180.446L179.602 59.6846ZM186.061 84.068H179.72V77.7277H186.061V84.068Z" fill="#F5382C"/>
</g>
<defs>
<clipPath id="clip0_432_2142">
<rect width="324.747" height="125.932" fill="white"/>
</clipPath>
</defs>
</svg>
