<svg width="151" height="204" viewBox="0 0 151 204" fill="none" xmlns="http://www.w3.org/2000/svg">
<path d="M0 82.6374H94.5934V115.692C94.5934 122.49 89.0831 128 82.2857 128H12.3077C5.51033 128 0 122.49 0 115.692V82.6374Z" fill="black"/>
<path d="M82.6374 0C89.2405 0 94.5934 5.3529 94.5934 11.956V82.6374C94.5934 89.2405 89.2405 94.5934 82.6374 94.5934H56.6556C56.5944 94.6973 56.5185 94.7973 56.4251 94.8898L47.0553 104.163C46.5072 104.706 45.6247 104.706 45.0766 104.163L35.7067 94.8898C35.6133 94.7973 35.5375 94.6973 35.4763 94.5934H11.956C5.3529 94.5934 0 89.2405 0 82.6374V11.956C0 5.3529 5.3529 0 11.956 0H82.6374Z" fill="white"/>
<path d="M20.6354 112.745C20.5754 112.239 20.3323 111.846 19.9061 111.566C19.4799 111.287 18.957 111.147 18.3377 111.147C17.8848 111.147 17.4885 111.22 17.1489 111.367C16.8125 111.513 16.5495 111.715 16.3596 111.971C16.1732 112.227 16.0799 112.519 16.0799 112.845C16.0799 113.118 16.1449 113.353 16.2747 113.549C16.4079 113.743 16.5778 113.904 16.7842 114.034C16.9907 114.161 17.2071 114.265 17.4336 114.349C17.66 114.429 17.8681 114.494 18.0579 114.543L19.0969 114.823C19.3633 114.893 19.6597 114.99 19.986 115.113C20.3157 115.236 20.6304 115.404 20.9301 115.617C21.2331 115.827 21.4829 116.097 21.6793 116.427C21.8758 116.756 21.974 117.161 21.974 117.64C21.974 118.193 21.8292 118.693 21.5395 119.139C21.2531 119.585 20.8335 119.94 20.2807 120.203C19.7313 120.466 19.0636 120.597 18.2777 120.597C17.5451 120.597 16.9108 120.479 16.3746 120.243C15.8418 120.006 15.4223 119.677 15.1159 119.254C14.8129 118.831 14.6414 118.34 14.6014 117.78H15.8801C15.9134 118.166 16.0433 118.486 16.2697 118.739C16.4995 118.989 16.7892 119.175 17.1389 119.299C17.4918 119.419 17.8715 119.479 18.2777 119.479C18.7506 119.479 19.1752 119.402 19.5515 119.249C19.9277 119.092 20.2258 118.876 20.4456 118.599C20.6653 118.32 20.7752 117.993 20.7752 117.62C20.7752 117.281 20.6803 117.004 20.4905 116.791C20.3007 116.578 20.051 116.405 19.7413 116.272C19.4316 116.139 19.0969 116.022 18.7373 115.922L17.4785 115.562C16.6793 115.333 16.0466 115.005 15.5804 114.578C15.1142 114.152 14.8811 113.594 14.8811 112.905C14.8811 112.332 15.036 111.833 15.3457 111.407C15.6587 110.977 16.0783 110.644 16.6044 110.408C17.1339 110.168 17.7249 110.048 18.3776 110.048C19.037 110.048 19.6231 110.166 20.1359 110.403C20.6487 110.636 21.055 110.955 21.3547 111.362C21.6577 111.768 21.8175 112.229 21.8342 112.745H20.6354ZM32.2425 113.385H31.0038C30.9305 113.028 30.8023 112.715 30.6191 112.446C30.4393 112.176 30.2195 111.949 29.9598 111.766C29.7034 111.58 29.4187 111.44 29.1057 111.347C28.7926 111.253 28.4663 111.207 28.1266 111.207C27.5072 111.207 26.9461 111.363 26.4433 111.676C25.9438 111.989 25.5459 112.451 25.2495 113.06C24.9565 113.669 24.8099 114.417 24.8099 115.303C24.8099 116.188 24.9565 116.936 25.2495 117.545C25.5459 118.155 25.9438 118.616 26.4433 118.929C26.9461 119.242 27.5072 119.399 28.1266 119.399C28.4663 119.399 28.7926 119.352 29.1057 119.259C29.4187 119.165 29.7034 119.027 29.9598 118.844C30.2195 118.658 30.4393 118.43 30.6191 118.16C30.8023 117.887 30.9305 117.574 31.0038 117.221H32.2425C32.1493 117.744 31.9794 118.211 31.733 118.624C31.4866 119.037 31.1802 119.389 30.8139 119.678C30.4476 119.965 30.0364 120.183 29.5802 120.333C29.1273 120.483 28.6428 120.557 28.1266 120.557C27.2542 120.557 26.4783 120.344 25.799 119.918C25.1196 119.492 24.5852 118.886 24.1956 118.1C23.806 117.314 23.6111 116.382 23.6111 115.303C23.6111 114.224 23.806 113.291 24.1956 112.505C24.5852 111.72 25.1196 111.114 25.799 110.687C26.4783 110.261 27.2542 110.048 28.1266 110.048C28.6428 110.048 29.1273 110.123 29.5802 110.273C30.0364 110.423 30.4476 110.642 30.8139 110.932C31.1802 111.218 31.4866 111.568 31.733 111.981C31.9794 112.391 32.1493 112.858 32.2425 113.385ZM34.6638 120.418H33.3651L37.1214 110.188H38.4001L42.1564 120.418H40.8576L37.8007 111.806H37.7208L34.6638 120.418ZM35.1434 116.422H40.3781V117.52H35.1434V116.422ZM51.8616 110.188V120.418H50.6628L45.0884 112.386H44.9885V120.418H43.7498V110.188H44.9486L50.543 118.24H50.6429V110.188H51.8616ZM58.2965 110.188H59.775L63.2515 118.679H63.3714L66.8479 110.188H68.3264V120.418H67.1676V112.645H67.0677L63.8709 120.418H62.752L59.5552 112.645H59.4553V120.418H58.2965V110.188ZM70.8102 120.418V110.188H76.984V111.287H72.049V114.743H76.6643V115.842H72.049V119.319H77.0639V120.418H70.8102Z" fill="white"/>
</svg>
